<svg width="960" height="270" viewBox="0 0 960 270" fill="none" xmlns="http://www.w3.org/2000/svg">
<g clip-path="url(#clip0_5_8)">
<path d="M0 198.975L14.5 189.475C29 179.975 58 160.975 87.2 159.175C116.3 157.275 145.7 172.675 174.8 158.975C204 145.275 233 102.675 262 83.2747C291 63.9747 320 67.9747 349 91.4747C378 114.975 407 157.975 436.2 177.275C465.3 196.675 494.7 192.275 523.8 177.675C553 162.975 582 137.975 611 120.475C640 102.975 669 92.9747 698 98.6747C727 104.275 756 125.675 785.2 132.475C814.3 139.275 843.7 131.675 872.8 125.975C902 120.275 931 116.675 945.5 114.775L960 112.975" stroke="#2ECC71" stroke-width="8" stroke-linecap="round"/>
</g>
<defs>
<clipPath id="clip0_5_8">
<rect width="960" height="270" fill="white"/>
</clipPath>
</defs>
</svg>
