<svg width="239" height="63" viewBox="0 0 239 63" fill="none" xmlns="http://www.w3.org/2000/svg">
<g clip-path="url(#clip0_6_9)">
<path d="M5.512 42.176C4.65867 42.176 3.976 41.92 3.464 41.408C2.99467 40.896 2.76 40.256 2.76 39.488V8.768C2.76 7.91467 2.99467 7.25333 3.464 6.784C3.976 6.272 4.65867 6.016 5.512 6.016C6.32267 6.016 6.96267 6.272 7.432 6.784C7.944 7.25333 8.2 7.91467 8.2 8.768V39.488C8.2 40.256 7.944 40.896 7.432 41.408C6.96267 41.92 6.32267 42.176 5.512 42.176ZM32.648 56C31.8373 56 31.176 55.744 30.664 55.232C30.152 54.72 29.896 54.08 29.896 53.312V36.992C29.896 34.3893 29.4053 32.2773 28.424 30.656C27.4853 28.992 26.184 27.7547 24.52 26.944C22.856 26.0907 20.9573 25.664 18.824 25.664C16.8187 25.664 15.0053 26.0693 13.384 26.88C11.8053 27.648 10.5467 28.7147 9.608 30.08C8.66933 31.4027 8.2 32.9387 8.2 34.688H4.488C4.57333 32 5.27733 29.6107 6.6 27.52C7.96533 25.3867 9.77867 23.7013 12.04 22.464C14.3013 21.2267 16.8187 20.608 19.592 20.608C22.5787 20.608 25.2453 21.248 27.592 22.528C29.9813 23.7653 31.8587 25.6 33.224 28.032C34.632 30.464 35.336 33.4507 35.336 36.992V53.312C35.336 54.08 35.08 54.72 34.568 55.232C34.056 55.744 33.416 56 32.648 56ZM5.512 56C4.65867 56 3.976 55.7653 3.464 55.296C2.99467 54.784 2.76 54.1227 2.76 53.312V23.744C2.76 22.8907 2.99467 22.2293 3.464 21.76C3.976 21.248 4.65867 20.992 5.512 20.992C6.32267 20.992 6.96267 21.248 7.432 21.76C7.944 22.2293 8.2 22.8907 8.2 23.744V53.312C8.2 54.1227 7.944 54.784 7.432 55.296C6.96267 55.7653 6.32267 56 5.512 56ZM61.3015 56.384C58.2722 56.384 55.5628 55.7653 53.1735 54.528C50.8268 53.248 48.9708 51.392 47.6055 48.96C46.2402 46.528 45.5575 43.5413 45.5575 40V23.68C45.5575 22.912 45.8135 22.272 46.3255 21.76C46.8375 21.248 47.4775 20.992 48.2455 20.992C49.0135 20.992 49.6535 21.248 50.1655 21.76C50.6775 22.272 50.9335 22.912 50.9335 23.68V40C50.9335 42.6027 51.4242 44.736 52.4055 46.4C53.3868 48.0213 54.7095 49.2587 56.3735 50.112C58.0375 50.9227 59.9148 51.328 62.0055 51.328C64.0108 51.328 65.8242 50.944 67.4455 50.176C69.0668 49.3653 70.3468 48.2987 71.2855 46.976C72.2242 45.6107 72.6935 44.0533 72.6935 42.304H76.3415C76.2562 44.992 75.5522 47.4027 74.2295 49.536C72.9068 51.6267 71.1148 53.2907 68.8535 54.528C66.5922 55.7653 64.0748 56.384 61.3015 56.384ZM75.3815 56C74.5708 56 73.9095 55.7653 73.3975 55.296C72.9282 54.784 72.6935 54.1013 72.6935 53.248V23.68C72.6935 22.8693 72.9282 22.2293 73.3975 21.76C73.9095 21.248 74.5708 20.992 75.3815 20.992C76.1922 20.992 76.8535 21.248 77.3655 21.76C77.8775 22.2293 78.1335 22.8693 78.1335 23.68V53.248C78.1335 54.1013 77.8775 54.784 77.3655 55.296C76.8535 55.7653 76.1922 56 75.3815 56ZM101.987 56.32C99.3417 56.32 96.7603 55.8933 94.243 55.04C91.7683 54.144 89.7843 52.8853 88.291 51.264C87.779 50.7093 87.5657 50.0693 87.651 49.344C87.7363 48.6187 88.0777 48.0213 88.675 47.552C89.3577 47.04 90.0403 46.8267 90.723 46.912C91.4483 46.9973 92.0457 47.296 92.515 47.808C93.4537 48.9173 94.755 49.8133 96.419 50.496C98.083 51.136 99.9177 51.456 101.923 51.456C104.867 51.456 107.022 50.9653 108.387 49.984C109.795 48.96 110.52 47.7013 110.563 46.208C110.563 44.7573 109.859 43.5413 108.451 42.56C107.086 41.5787 104.739 40.8107 101.411 40.256C97.1017 39.5307 93.9443 38.3147 91.939 36.608C89.9763 34.9013 88.995 32.8533 88.995 30.464C88.995 28.288 89.5923 26.4747 90.787 25.024C91.9817 23.5733 93.539 22.4853 95.459 21.76C97.4217 21.0347 99.5337 20.672 101.795 20.672C104.654 20.672 107.128 21.1627 109.219 22.144C111.31 23.0827 112.995 24.3627 114.275 25.984C114.744 26.5813 114.936 27.2213 114.851 27.904C114.808 28.544 114.467 29.056 113.827 29.44C113.272 29.824 112.611 29.952 111.843 29.824C111.118 29.696 110.499 29.3547 109.987 28.8C108.92 27.648 107.704 26.816 106.339 26.304C104.974 25.7493 103.416 25.472 101.667 25.472C99.4483 25.472 97.6563 25.92 96.291 26.816C94.9257 27.6693 94.243 28.7787 94.243 30.144C94.243 31.0827 94.4777 31.8933 94.947 32.576C95.459 33.2587 96.3337 33.8773 97.571 34.432C98.851 34.944 100.664 35.4133 103.011 35.84C106.211 36.3947 108.728 37.184 110.563 38.208C112.44 39.1893 113.763 40.3413 114.531 41.664C115.342 42.9867 115.747 44.4587 115.747 46.08C115.747 48.0853 115.171 49.856 114.019 51.392C112.91 52.8853 111.331 54.08 109.283 54.976C107.235 55.872 104.803 56.32 101.987 56.32ZM137.574 56C135.355 56 133.371 55.4667 131.622 54.4C129.872 53.3333 128.486 51.8613 127.462 49.984C126.48 48.1067 125.99 45.9947 125.99 43.648V12.544C125.99 11.776 126.224 11.136 126.694 10.624C127.206 10.112 127.867 9.856 128.678 9.856C129.446 9.856 130.086 10.112 130.598 10.624C131.11 11.136 131.366 11.776 131.366 12.544V43.648C131.366 45.6533 131.942 47.3173 133.094 48.64C134.288 49.9627 135.782 50.624 137.574 50.624H139.494C140.176 50.624 140.752 50.88 141.222 51.392C141.691 51.904 141.926 52.544 141.926 53.312C141.926 54.1227 141.627 54.784 141.03 55.296C140.475 55.7653 139.75 56 138.854 56H137.574ZM122.214 26.944C121.488 26.944 120.891 26.7307 120.422 26.304C119.952 25.8347 119.718 25.28 119.718 24.64C119.718 23.9573 119.952 23.4027 120.422 22.976C120.891 22.5067 121.488 22.272 122.214 22.272H138.022C138.747 22.272 139.344 22.5067 139.814 22.976C140.283 23.4027 140.518 23.9573 140.518 24.64C140.518 25.28 140.283 25.8347 139.814 26.304C139.344 26.7307 138.747 26.944 138.022 26.944H122.214ZM157.756 56C155.964 56 154.385 55.5307 153.02 54.592C151.654 53.6107 150.588 52.2667 149.82 50.56C149.052 48.8533 148.668 46.8907 148.668 44.672V8.704C148.668 7.89333 148.902 7.25333 149.372 6.784C149.884 6.272 150.545 6.016 151.356 6.016C152.124 6.016 152.742 6.272 153.212 6.784C153.724 7.25333 153.98 7.89333 153.98 8.704V44.672C153.98 46.4213 154.321 47.872 155.004 49.024C155.729 50.1333 156.646 50.688 157.756 50.688H159.356C160.038 50.688 160.593 50.944 161.02 51.456C161.446 51.9253 161.66 52.544 161.66 53.312C161.66 54.1227 161.34 54.784 160.7 55.296C160.102 55.7653 159.313 56 158.332 56H157.756ZM169.729 57.024C168.662 57.024 167.745 56.64 166.977 55.872C166.209 55.104 165.825 54.1867 165.825 53.12C165.825 51.968 166.209 51.008 166.977 50.24C167.788 49.472 168.705 49.088 169.729 49.088C170.838 49.088 171.777 49.4933 172.545 50.304C173.313 51.072 173.697 52.0107 173.697 53.12C173.697 54.144 173.313 55.0613 172.545 55.872C171.82 56.64 170.881 57.024 169.729 57.024ZM186.283 56C185.472 56 184.811 55.7653 184.299 55.296C183.787 54.784 183.531 54.1013 183.531 53.248V23.744C183.531 22.8907 183.787 22.2293 184.299 21.76C184.811 21.248 185.472 20.992 186.283 20.992C187.094 20.992 187.734 21.248 188.203 21.76C188.715 22.2293 188.971 22.8907 188.971 23.744V53.248C188.971 54.1013 188.715 54.784 188.203 55.296C187.734 55.7653 187.094 56 186.283 56ZM186.219 14.656C185.195 14.656 184.32 14.2933 183.595 13.568C182.87 12.8 182.507 11.904 182.507 10.88C182.507 9.81333 182.87 8.93866 183.595 8.256C184.363 7.57333 185.238 7.232 186.219 7.232C187.2 7.232 188.054 7.57333 188.779 8.256C189.547 8.93866 189.931 9.81333 189.931 10.88C189.931 11.904 189.568 12.8 188.843 13.568C188.118 14.2933 187.243 14.656 186.219 14.656ZM217.321 56.32C213.865 56.32 210.793 55.552 208.105 54.016C205.46 52.48 203.369 50.368 201.833 47.68C200.297 44.992 199.529 41.9413 199.529 38.528C199.529 35.072 200.297 32 201.833 29.312C203.369 26.624 205.46 24.512 208.105 22.976C210.793 21.44 213.865 20.672 217.321 20.672C220.734 20.672 223.764 21.44 226.409 22.976C229.054 24.512 231.145 26.624 232.681 29.312C234.217 32 235.006 35.072 235.049 38.528C235.049 41.9413 234.281 44.992 232.745 47.68C231.209 50.368 229.097 52.48 226.409 54.016C223.764 55.552 220.734 56.32 217.321 56.32ZM217.321 51.456C219.71 51.456 221.844 50.9013 223.721 49.792C225.598 48.64 227.07 47.104 228.137 45.184C229.204 43.2213 229.737 41.0027 229.737 38.528C229.737 36.0533 229.204 33.8347 228.137 31.872C227.07 29.9093 225.598 28.3733 223.721 27.264C221.844 26.112 219.71 25.536 217.321 25.536C214.932 25.536 212.777 26.112 210.857 27.264C208.98 28.3733 207.486 29.9093 206.377 31.872C205.31 33.8347 204.777 36.0533 204.777 38.528C204.777 41.0027 205.31 43.2213 206.377 45.184C207.486 47.104 208.98 48.64 210.857 49.792C212.777 50.9013 214.932 51.456 217.321 51.456Z" fill="white"/>
</g>
<defs>
<clipPath id="clip0_6_9">
<rect width="239" height="63" fill="white"/>
</clipPath>
</defs>
</svg>
