<svg viewBox="0 0 744 554" fill="none" xmlns="http://www.w3.org/2000/svg">
<g clip-path="url(#clip0_19_2)">
<path d="M577.41 54.58H193.21V248.52H577.41V54.58Z" fill="#33323D"/>
<path d="M698.31 307.44H73.53V435.1H698.31V307.44Z" fill="#33323D"/>
<path d="M222.67 339.35H543.04L606.87 554.16H155.16L222.67 339.35Z" fill="#ECF0F1"/>
<path d="M55.73 231.33V297.62V311.58V435.09H175.41V317.26H596.43V435.09H716.11V311.58V297.62V231.33H55.73Z" fill="#504F60"/>
<path opacity="0.1" d="M716.11 231.33H55.73V297.61H716.11V231.33Z" fill="#33323D"/>
<path opacity="0.8" d="M680.52 274.3C685.943 274.3 690.34 269.903 690.34 264.48C690.34 259.057 685.943 254.66 680.52 254.66C675.097 254.66 670.7 259.057 670.7 264.48C670.7 269.903 675.097 274.3 680.52 274.3Z" fill="#8CCF4D"/>
<path opacity="0.8" d="M636.33 274.3C641.753 274.3 646.15 269.903 646.15 264.48C646.15 259.057 641.753 254.66 636.33 254.66C630.907 254.66 626.51 259.057 626.51 264.48C626.51 269.903 630.907 274.3 636.33 274.3Z" fill="#FA5959"/>
<path d="M563.3 7.92999H207.33V219.05H563.3V7.92999Z" fill="#ECF0F1"/>
<path d="M617.45 316.07C618.2 324.24 612.03 332.17 613.83 340.17C614.21 341.88 614.95 343.5 615.22 345.17C615.96 349.92 613.13 354.42 610.42 358.4L587.19 392.58C586.258 394.079 585.143 395.457 583.87 396.68C579.42 400.68 572.76 400.22 566.93 401.4C562.831 402.231 558.96 403.937 555.58 406.4C555.433 406.517 555.335 406.685 555.308 406.87C555.28 407.056 555.323 407.245 555.43 407.4C556.391 408.718 557.667 409.775 559.141 410.474C560.615 411.173 562.241 411.491 563.87 411.4C564.48 412.2 563.87 413.4 563.03 413.96C561.78 414.82 560.03 415.05 559.82 417.17C559.732 417.907 559.879 418.652 560.24 419.3C561.18 420.732 562.639 421.743 564.31 422.12C572.31 424.58 581.04 420.26 587.06 414.38C593.08 408.5 597.4 401.08 603.31 395.09C606.58 391.78 610.31 388.94 613.67 385.73C620.39 379.33 625.67 371.54 630.67 363.73C632.321 361.465 633.566 358.931 634.35 356.24C634.97 353.58 634.69 350.77 635.41 348.13C636.35 344.68 638.88 341.93 640.98 339.03C645.11 333.35 647.86 326.41 647.31 319.41C646.76 312.41 642.44 305.52 635.84 303.14C633.794 302.325 631.54 302.188 629.41 302.75C626.7 303.58 624.71 305.82 622.86 307.96L618.45 313.05C617.351 314.177 616.478 315.504 615.88 316.96C615.596 317.694 615.53 318.494 615.692 319.265C615.853 320.035 616.235 320.742 616.79 321.3" fill="#3498DB"/>
<path opacity="0.05" d="M617.45 316.07C618.2 324.24 612.03 332.17 613.83 340.17C614.21 341.88 614.95 343.5 615.22 345.17C615.96 349.92 613.13 354.42 610.42 358.4L587.19 392.58C586.258 394.079 585.143 395.457 583.87 396.68C579.42 400.68 572.76 400.22 566.93 401.4C562.831 402.231 558.96 403.937 555.58 406.4C555.433 406.517 555.335 406.685 555.308 406.87C555.28 407.056 555.323 407.245 555.43 407.4C556.391 408.718 557.667 409.775 559.141 410.474C560.615 411.173 562.241 411.491 563.87 411.4C564.48 412.2 563.87 413.4 563.03 413.96C561.78 414.82 560.03 415.05 559.82 417.17C559.732 417.907 559.879 418.652 560.24 419.3C561.18 420.732 562.639 421.743 564.31 422.12C572.31 424.58 581.04 420.26 587.06 414.38C593.08 408.5 597.4 401.08 603.31 395.09C606.58 391.78 610.31 388.94 613.67 385.73C620.39 379.33 625.67 371.54 630.67 363.73C632.321 361.465 633.566 358.931 634.35 356.24C634.97 353.58 634.69 350.77 635.41 348.13C636.35 344.68 638.88 341.93 640.98 339.03C645.11 333.35 647.86 326.41 647.31 319.41C646.76 312.41 642.44 305.52 635.84 303.14C633.794 302.325 631.54 302.188 629.41 302.75C626.7 303.58 624.71 305.82 622.86 307.96L618.45 313.05C617.351 314.177 616.478 315.504 615.88 316.96C615.596 317.694 615.53 318.494 615.692 319.265C615.853 320.035 616.235 320.742 616.79 321.3" fill="#3498DB"/>
<path d="M635.04 526.36C629.96 529.45 623.64 529.65 617.74 528.92C616.74 528.81 615.67 528.74 615.06 529.47C614.18 530.54 615.22 532.1 616.29 532.96C619.776 535.569 623.867 537.252 628.18 537.85C632.03 538.387 635.913 538.644 639.8 538.62C650.4 538.8 661.06 538.98 671.56 537.45C672.166 537.405 672.756 537.231 673.29 536.94C673.968 536.467 674.437 535.75 674.6 534.94C675.33 532.22 673.94 529.28 671.85 527.39C669.76 525.5 667.07 524.44 664.44 523.39L655.22 519.8C653.05 518.95 649.58 516.72 647.22 516.89C642.91 517.24 638.7 524.22 635.04 526.36Z" fill="#3F3D56"/>
<path opacity="0.05" d="M635.04 526.36C629.96 529.45 623.64 529.65 617.74 528.92C616.74 528.81 615.67 528.74 615.06 529.47C614.18 530.54 615.22 532.1 616.29 532.96C619.776 535.569 623.867 537.252 628.18 537.85C632.03 538.387 635.913 538.644 639.8 538.62C650.4 538.8 661.06 538.98 671.56 537.45C672.166 537.405 672.756 537.231 673.29 536.94C673.968 536.467 674.437 535.75 674.6 534.94C675.33 532.22 673.94 529.28 671.85 527.39C669.76 525.5 667.07 524.44 664.44 523.39L655.22 519.8C653.05 518.95 649.58 516.72 647.22 516.89C642.91 517.24 638.7 524.22 635.04 526.36Z" fill="black"/>
<path d="M641.47 403.91C637.64 409.02 633.66 414.91 634.61 421.24C635.12 424.65 637.03 427.66 638.43 430.81C640.183 435.144 641.479 439.648 642.3 444.25C643.74 450.94 645.18 457.65 646.06 464.44C647.06 472.11 642.36 494.3 641.92 502.03C641.81 503.89 641.6 505.91 640.3 507.25C639.79 507.78 639.11 508.25 638.89 508.9C638.75 509.562 638.857 510.252 639.19 510.84C641.36 515.73 645.79 519.36 650.71 521.44C655.63 523.52 667.6 527.09 672.94 527.28C673.649 527.366 674.368 527.269 675.03 527C675.751 526.569 676.318 525.921 676.65 525.15C680.51 517.78 676.8 491.54 676.86 483.21C676.86 476.21 678.55 469.37 678.25 462.43C678 456.86 676.51 451.43 675.97 445.87C675.08 436.76 676.75 427.62 678.43 418.62C679.71 411.73 680.99 404.83 682.63 398.01C683.63 393.86 684.79 389.66 687.08 386.01C688.89 383.14 691.35 380.75 693.42 378.01C699.157 370.49 701.704 361.013 700.51 351.63C700.39 350.71 687.19 354.98 686.04 355.48C681.303 357.494 676.944 360.301 673.15 363.78C670.15 366.68 667.7 370.57 665.02 373.83C661.24 378.43 657.51 383.067 653.83 387.74C649.65 393.107 645.53 398.497 641.47 403.91Z" fill="#464353"/>
<path opacity="0.05" d="M641.47 403.58C637.64 408.69 633.66 414.58 634.61 420.92C635.12 424.32 637.03 427.33 638.43 430.48C640.181 434.814 641.478 439.318 642.3 443.92C643.74 450.61 645.18 457.32 646.06 464.11C647.06 471.78 642.36 493.98 641.92 501.71C641.81 503.56 641.6 505.59 640.3 506.92C639.79 507.45 639.11 507.92 638.89 508.57C638.738 509.251 638.845 509.964 639.19 510.57C641.36 515.45 645.79 519.09 650.71 521.16C655.63 523.23 667.6 525.16 672.94 525.33C673.649 525.416 674.368 525.319 675.03 525.05C675.751 524.619 676.318 523.971 676.65 523.2C680.51 515.83 676.8 491.26 676.86 482.94C676.86 475.94 678.55 469.09 678.25 462.15C678 456.58 676.51 451.15 675.97 445.59C675.08 436.48 676.75 427.34 678.43 418.35C679.71 411.45 680.99 404.55 682.63 397.73C683.63 393.58 684.79 389.38 687.08 385.73C688.89 382.87 691.35 380.47 693.42 377.79C699.15 370.266 701.696 360.793 700.51 351.41C700.39 350.48 687.19 354.75 686.04 355.26C681.299 357.276 676.939 360.09 673.15 363.58C670.15 366.49 667.7 370.37 665.02 373.58C661.24 378.18 657.51 382.82 653.83 387.5C649.65 392.833 645.53 398.193 641.47 403.58Z" fill="black"/>
<path d="M598.78 291.4C610.671 291.4 620.31 281.761 620.31 269.87C620.31 257.979 610.671 248.34 598.78 248.34C586.889 248.34 577.25 257.979 577.25 269.87C577.25 281.761 586.889 291.4 598.78 291.4Z" fill="#3498DB"/>
<path d="M618.16 268.97C620.148 272.145 622.755 274.888 625.825 277.035C628.895 279.183 632.365 280.691 636.03 281.47L634.41 287.34C631.61 297.47 628.41 308.18 620.64 315.2C621.49 311.77 620.39 308.08 618.45 305.13C616.375 302.26 613.915 299.689 611.14 297.49L598.75 286.71C598.381 286.437 598.065 286.098 597.82 285.71C597.52 284.952 597.52 284.108 597.82 283.35C599.4 278.44 603.91 275.35 607.56 272.05C609.396 270.33 611.039 268.416 612.46 266.34C615 262.81 616.53 266.34 618.16 268.97Z" fill="#3498DB"/>
<path d="M570.41 248.23L569.93 244.23C573.33 245.11 576.55 242.23 578.72 239.23C580.89 236.23 582.91 232.71 586.22 231.47C590.22 229.95 594.5 232.38 598.34 234.38C602.645 236.776 607.371 238.321 612.26 238.93C613.04 238.956 613.813 239.084 614.56 239.31C617.06 240.2 618.25 243.31 618.61 246.18C618.97 249.05 618.87 252.05 620.11 254.59C621.04 256.51 622.65 257.94 623.63 259.83C626.26 264.93 623.72 271.89 626.5 276.89L619.6 270.56C618.96 269.98 618.07 269.38 617.38 269.87C616.69 270.36 616.79 271.1 616.56 271.77C615.89 273.77 613.44 274.33 611.65 273.56C609.86 272.79 608.57 271.09 607.26 269.56C604.21 265.96 600.58 262.8 596.26 261.26C594.39 260.543 592.389 260.234 590.39 260.353C588.392 260.472 586.441 261.016 584.67 261.95C581.45 263.77 579.09 268.01 575.15 268.16C569.74 268.36 567.49 258.29 564.98 254.31C565.894 253.618 566.536 252.628 566.796 251.512C567.055 250.396 566.915 249.224 566.4 248.2C566.84 248.03 570.34 247.58 570.41 248.23Z" fill="#464353"/>
<path d="M660.15 526.19C655.895 529.984 650.371 532.043 644.67 531.96C643.22 531.96 641.21 532.24 641.2 533.69C641.225 534.121 641.371 534.537 641.62 534.89C643.426 537.89 646.274 540.119 649.62 541.15C652.72 542.09 656.04 541.93 659.28 541.77L668.73 541.28C670.51 541.18 672.3 541.09 674.08 540.87C675.86 540.65 677.78 540.28 679.64 540.01C684.196 539.359 688.803 539.141 693.4 539.36C694.62 539.41 696.03 539.36 696.79 538.44C697.55 537.52 697.14 535.86 696.86 534.53C696.3 531.79 696.86 528.92 696.34 526.17C695.43 521.34 691.28 517.65 686.7 515.9C682.45 514.28 674.91 512.43 670.88 515.12C666.56 518.02 663.96 522.74 660.15 526.19Z" fill="#3F3D56"/>
<path d="M669.51 364.58C670.35 368.58 674.18 371.58 674.3 375.58C674.39 378.82 672.07 381.58 670.41 384.33C668.824 387.211 667.486 390.222 666.41 393.33C663.254 401.397 659.343 409.148 654.73 416.48C652.51 419.99 650.03 423.81 650.54 427.94C650.889 429.867 651.566 431.721 652.54 433.42L659.19 446.63C660.651 449.269 661.792 452.072 662.59 454.98C663.16 457.49 663.22 460.09 663.59 462.65C664.64 470.75 668.44 478.91 666.2 486.76C666 487.44 665.3 488.26 664.77 487.76C666.96 491.86 668.77 496 668.56 500.65C668.47 503.09 667.72 505.65 668.63 507.91C669.145 508.79 669.485 509.761 669.63 510.77C669.63 511.43 669.32 512.06 669.25 512.77C669.07 514.64 670.78 516.2 672.57 516.77C674.36 517.34 676.29 517.32 678.09 517.86C681.56 518.86 684.02 521.86 686.99 523.94C689.998 526.026 693.551 527.184 697.21 527.27C697.729 527.325 698.252 527.221 698.71 526.97C698.972 526.742 699.183 526.461 699.328 526.146C699.473 525.83 699.548 525.487 699.55 525.14C699.71 523.484 699.459 521.814 698.821 520.278C698.183 518.741 697.176 517.386 695.89 516.33C695.331 515.974 694.868 515.486 694.54 514.91C694.371 514.398 694.327 513.853 694.41 513.32C694.95 506.05 694.82 498.746 694.02 491.5C693.659 489.205 693.542 486.879 693.67 484.56C693.87 482.63 694.45 480.71 694.23 478.78C694.01 476.85 693.04 475.11 692.46 473.25C691.46 469.95 691.72 466.41 691.61 462.95C691.43 456.95 690.06 451.07 688.69 445.23C688.16 442.94 687.56 440.53 685.93 438.83C684.55 437.39 682.32 436 682.84 434.08C683.124 433.369 683.553 432.725 684.1 432.19C684.745 431.384 685.219 430.454 685.492 429.459C685.765 428.463 685.833 427.423 685.69 426.4C686.275 426.556 686.896 426.501 687.444 426.245C687.993 425.989 688.434 425.548 688.69 425C699.5 419.91 708.24 409.71 712.09 398.39C712.306 397.555 712.643 396.757 713.09 396.02C714.09 394.62 715.83 394.02 717.37 393.24C722.21 390.81 725.56 386.24 728.63 381.77C730.42 379.17 732.2 376.49 732.97 373.44C733.391 371.468 733.592 369.456 733.57 367.44L733.84 357.02C733.894 356.347 733.827 355.669 733.64 355.02C733.386 354.398 733.004 353.836 732.52 353.37C729.588 350.247 725.733 348.145 721.52 347.37C718.68 346.86 715.78 346.96 712.91 346.72C707.34 346.26 701.84 344.54 696.27 344.94C687.51 345.58 679.72 351.65 675.59 359.4C674.14 362.17 672.62 364.58 669.51 364.58Z" fill="#464353"/>
<path d="M620.91 296.82C621.037 298.427 620.822 300.042 620.28 301.56C619.6 303.02 617.88 304.15 616.39 303.56C616.84 302.56 615.64 301.37 614.53 301.5C613.981 301.622 613.47 301.876 613.041 302.241C612.613 302.605 612.279 303.068 612.07 303.59C611.324 305.076 611.075 306.762 611.36 308.4C611.71 310.4 612.89 312.4 612.58 314.4C612.33 316.1 611.08 317.8 611.75 319.4C612.181 320.119 612.721 320.767 613.35 321.32C614.229 322.398 614.66 323.772 614.554 325.159C614.448 326.546 613.813 327.838 612.78 328.77L629.56 329.1C628.95 331.91 630.2 334.78 631.64 337.27C635.67 344.114 641.229 349.932 647.882 354.269C654.535 358.606 662.102 361.345 669.99 362.27C669.564 362.521 669.2 362.864 668.922 363.273C668.644 363.682 668.461 364.148 668.384 364.636C668.308 365.125 668.34 365.624 668.48 366.098C668.619 366.573 668.862 367.01 669.19 367.38C670.55 368.73 672.86 368.56 674.57 367.68C676.28 366.8 677.63 365.35 679.19 364.23C681.942 362.269 685.305 361.361 688.67 361.67C690.77 361.87 692.81 362.55 694.92 362.67C701.14 363 706.48 358.53 712.43 356.67C716.79 355.33 721.72 355.33 725.43 352.61C727.01 351.44 728.3 349.52 727.84 347.61C727.45 346.514 726.833 345.512 726.03 344.67C723.92 341.95 722.68 338.67 721.18 335.58C718.188 329.456 714.074 323.947 709.05 319.34C705.266 316.023 701.256 312.972 697.05 310.21C696.026 309.446 694.935 308.777 693.79 308.21C692.263 307.712 690.772 307.108 689.33 306.4C687.33 305.16 686.22 302.97 684.71 301.2C681.38 297.32 676.27 295.53 672.17 292.48C669.42 290.48 667 287.74 663.71 286.75C662.12 286.27 660.42 286.23 658.82 285.75C655.2 284.65 652.56 281.43 649 280.13C646.18 279.13 643.08 279.37 640.1 279C636.822 278.593 633.69 277.403 630.97 275.53C630.067 274.802 629.054 274.222 627.97 273.81C623.48 272.44 623.11 280.81 622.69 283.72C622.02 288.17 620.91 292.45 620.91 296.82Z" fill="#3F3D56"/>
<path d="M625.29 324.92C626.04 333.09 619.87 341.01 621.67 349.02C622.05 350.73 622.79 352.35 623.06 354.02C623.81 358.77 620.97 363.27 618.26 367.24L595.03 401.34C594.098 402.839 592.983 404.217 591.71 405.44C587.26 409.44 580.6 408.98 574.77 410.16C570.672 410.993 566.801 412.698 563.42 415.16C563.273 415.277 563.175 415.445 563.148 415.63C563.12 415.816 563.164 416.005 563.27 416.16C564.229 417.48 565.505 418.539 566.979 419.238C568.454 419.937 570.081 420.254 571.71 420.16C572.32 420.97 571.71 422.16 570.87 422.72C569.62 423.59 567.87 423.82 567.66 425.94C567.572 426.676 567.719 427.422 568.08 428.07C569.023 429.499 570.481 430.509 572.15 430.89C580.15 433.35 588.88 429.03 594.9 423.15C600.92 417.27 605.24 409.85 611.16 403.86C614.43 400.55 618.16 397.71 621.51 394.5C628.24 388.1 633.46 380.31 638.51 372.5C640.159 370.234 641.404 367.7 642.19 365.01C642.81 362.35 642.53 359.54 643.25 356.9C644.19 353.45 646.72 350.69 648.82 347.8C652.95 342.12 655.7 335.18 655.15 328.18C654.6 321.18 650.28 314.29 643.68 311.91C641.635 311.09 639.379 310.953 637.25 311.52C634.55 312.35 632.55 314.59 630.7 316.73L626.29 321.82C625.191 322.944 624.321 324.273 623.73 325.73C623.444 326.461 623.377 327.26 623.537 328.029C623.697 328.797 624.076 329.503 624.63 330.06" fill="#3498DB"/>
<path d="M637.05 291.35C633.99 291.53 630.63 291.83 628.47 294.01C627.57 295.011 626.841 296.153 626.31 297.39C624.22 301.66 622.18 306.12 622.03 310.87C621.9 314.67 623.03 318.38 623.58 322.14C624.06 325.26 622.84 328.44 622.58 331.6C626.37 330.44 631.37 328.86 634.81 326.9C637.064 325.425 639.459 324.179 641.96 323.18C645.61 321.97 651.74 324.05 655.18 325.76C655.37 323.32 653.55 319.09 653.74 316.65C653.77 315.629 653.952 314.618 654.28 313.65C654.798 312.625 655.411 311.651 656.11 310.74C657.436 308.594 658.047 306.082 657.855 303.566C657.663 301.05 656.677 298.66 655.04 296.74C651.97 293.28 647.15 291.98 642.56 291.45C639.666 291.112 636.75 291.008 633.84 291.14" fill="#3F3D56"/>
<path d="M184 221.39L164.28 192.79C164.28 192.79 163.91 185.71 162.62 184.06C161.33 182.41 162.34 178.73 162.34 178.73C162.34 178.73 163.73 176.73 162.53 176.52C161.33 176.31 162.34 171.83 162.34 171.83L162.25 164.66C162.25 164.66 163.36 157.76 162.44 156.11C162.168 155.662 162.032 155.145 162.048 154.622C162.064 154.098 162.232 153.59 162.53 153.16C162.53 153.16 163.63 149.21 162.53 148.16C161.43 147.11 161.7 140.99 161.97 136.11C162.24 131.23 160.04 128.48 160.04 127.75C160.04 127.02 152.76 119.84 152.76 119.19C152.76 118.54 148.15 115.88 145.38 115.19C142.61 114.5 141.24 113.9 141.33 113.53C141.42 113.16 137 111.7 137 111.7C137 111.7 133.13 111.42 131.65 109.49C130.17 107.56 125.65 107 125.54 106.98L125.45 106.6C125.45 106.46 125.4 106.32 125.37 106.18C125.735 105.598 126.069 104.997 126.37 104.38L126.63 103.82C128.25 103.83 129.832 103.338 131.16 102.41C131.814 101.868 132.348 101.196 132.728 100.437C133.109 99.678 133.327 98.8481 133.37 98C133.449 96.3 133.076 94.6094 132.29 93.1C131.48 91.45 130.29 89.73 130.71 87.93C130.89 87.16 131.35 86.48 131.59 85.72C131.948 84.2363 131.711 82.6712 130.93 81.36C130.23 80.03 129.26 78.85 128.48 77.56C127.491 75.9084 126.829 74.0819 126.53 72.18C126.474 71.1682 126.234 70.1751 125.82 69.25C125.402 68.5981 124.849 68.0425 124.2 67.62C121.314 65.5615 117.833 64.5075 114.29 64.62C111.78 64.7 109.29 65.38 106.79 65.07C105.301 64.8138 103.835 64.4325 102.41 63.93C99.32 63.01 95.75 62.64 93.06 64.41C90.37 66.18 89.3 69.66 87.47 72.41C85.86 74.81 83.47 76.83 82.27 79.41C82.27 79.41 82.27 79.31 82.27 79.27C81.9679 79.8573 81.7363 80.4783 81.58 81.12C81.2367 83.1574 81.3771 85.2469 81.99 87.22C82.1254 88.2823 82.6577 89.254 83.48 89.94C84.39 90.53 85.64 90.39 86.7 90.58L86.58 91.1C85.5008 96.2692 86.4039 101.655 89.1102 106.19C91.8164 110.724 96.1281 114.076 101.19 115.58C101.19 115.77 101.19 115.95 101.19 116.14C101.188 116.668 101.154 117.196 101.09 117.72C101.09 117.72 91.82 115.81 89.33 117.1C86.84 118.39 81.96 119.4 81.22 120.1C80.48 120.8 78.64 120.29 76.98 124.61C75.32 128.93 75.14 133.34 72.98 135.37C70.82 137.4 69.76 138.77 69.66 140.24C69.56 141.71 69.94 142.08 69.11 142.54C68.28 143 67.11 144.93 67.45 145.67C67.5772 146.176 67.5499 146.708 67.3717 147.198C67.1934 147.688 66.8724 148.114 66.45 148.42C66.0127 148.727 65.6635 149.144 65.4371 149.628C65.2108 150.112 65.1153 150.647 65.16 151.18C65.16 151.18 64.6 153.18 63.31 153.67C62.02 154.16 61.19 157.16 61.19 157.16L57.01 161.96L48.73 152.8C48.1081 152.115 47.2404 151.705 46.3166 151.658C45.3928 151.611 44.4881 151.932 43.8 152.55L39.73 156.21C38.1617 156.591 36.7438 157.434 35.66 158.63C34.7781 159.545 34.0639 160.608 33.55 161.77L31.33 163.77C30.6287 164.639 30.1995 165.696 30.0963 166.807C29.9931 167.919 30.2205 169.037 30.75 170.02L36.06 175.89V175.94C34.1789 176.106 32.3913 176.834 30.93 178.03C23.01 185.03 22.93 191.46 24.11 194.4C25.29 197.34 35.35 208.65 35.35 208.65C35.35 208.65 41.19 216.24 49.62 220.27L49.56 220.34C49.3865 220.521 49.2229 220.711 49.07 220.91L48.93 221.09L48.8 221.27L48.65 221.49C48.6097 221.548 48.573 221.608 48.54 221.67L48.38 221.93C48.3429 221.988 48.3095 222.048 48.28 222.11C48.21 222.23 48.15 222.35 48.09 222.47C48.068 222.509 48.048 222.549 48.03 222.59C47.95 222.75 47.87 222.91 47.8 223.09L47.72 223.27C47.67 223.39 47.63 223.51 47.58 223.64C47.5489 223.718 47.5222 223.799 47.5 223.88L47.38 224.24C47.3475 224.325 47.3208 224.412 47.3 224.5C47.3 224.63 47.22 224.76 47.19 224.9C47.16 225.04 47.14 225.06 47.12 225.15C47.1 225.24 47.02 225.58 46.98 225.81C46.98 225.89 46.98 225.98 46.93 226.07C46.88 226.16 46.88 226.38 46.85 226.54C46.82 226.7 46.85 226.76 46.85 226.88L46.79 227.33V227.69C46.79 227.86 46.79 228.03 46.74 228.21C46.69 228.39 46.74 228.42 46.74 228.53C46.74 228.82 46.74 229.11 46.74 229.42C46.56 240.18 47.19 241.74 47.19 241.74C47.6013 242.734 48.2722 243.599 49.1325 244.245C49.9928 244.89 51.0108 245.293 52.08 245.41C52.6046 245.451 53.1323 245.424 53.65 245.33C58.45 244.5 69.65 242.57 73.65 243.33C76.04 243.77 80.45 243.11 83.59 242.52L84.42 242.36L84.99 244.19L86.81 243.69L88.36 244.58L89.36 245.15C91.18 251.31 98.56 249.21 98.56 249.21L100.31 250.21L118.1 250.67C120.097 251.873 122.207 252.878 124.4 253.67C124.69 253.765 124.988 253.831 125.29 253.87C126.953 254.005 128.623 254.035 130.29 253.96C131.65 253.96 132.7 253.87 132.7 253.87C132.7 253.87 132.52 249.04 132.26 243.63C137.775 243.494 143.277 243.043 148.74 242.28C158.24 240.62 162.2 231.98 163.66 227.36C164.097 229.247 164.408 231.161 164.59 233.09C164.978 234.786 165.473 236.456 166.07 238.09C166.579 239.396 167.251 240.632 168.07 241.77C175.07 239.38 170.83 235.77 169.36 234.23C167.89 232.69 170.36 231.38 170.36 231.38C170.36 231.38 172.3 230.09 172.11 228.9C171.92 227.71 171.83 226.42 178.11 226.51C184.39 226.6 184 221.39 184 221.39ZM86.68 162.68C86.76 163.2 87.68 168.87 88.42 170.36C88.6409 171.344 88.7117 172.355 88.63 173.36C84.92 173.06 81.05 172.9 81.05 172.9C81.1588 173.035 81.228 173.198 81.25 173.37L80.66 173.24L79.82 173.04L86.66 162.63L86.68 162.68ZM73.12 184.24L79.55 185.24L80.09 185.32C79.9082 186.311 79.7979 187.313 79.76 188.32C79.76 188.42 79.9 188.53 80.11 188.66C80.0205 189.165 79.9803 189.677 79.99 190.19C80.09 190.69 83.09 191.79 86.54 192.7C86.49 192.89 86.45 193.07 86.4 193.23C83.35 191.63 78.56 190.88 78.01 189.69C77.46 188.5 61.14 182.8 61.14 182.8L59.52 181.99L63.81 182.8L64.99 182.68C67.6633 183.376 70.3791 183.897 73.12 184.24V184.24Z" fill="url(#paint0_linear_19_2)"/>
<path d="M163.02 225.39C163.02 225.39 160.47 240.83 147.5 243.11C134.53 245.39 91.23 244.94 91.23 244.94C91.23 244.94 66.47 241.37 57.52 220.46C48.57 199.55 42.81 191.22 50.52 190.86C58.23 190.5 99.58 204.86 101.95 205.02C104.32 205.18 165.31 173.23 163.02 225.39Z" fill="#65617D"/>
<path opacity="0.05" d="M163.02 225.39C163.02 225.39 160.47 240.83 147.5 243.11C134.53 245.39 91.23 244.94 91.23 244.94C91.23 244.94 66.47 241.37 57.52 220.46C48.57 199.55 42.81 191.22 50.52 190.86C58.23 190.5 99.58 204.86 101.95 205.02C104.32 205.18 165.31 173.23 163.02 225.39Z" fill="black"/>
<path d="M46.91 242.58C47.312 243.569 47.9742 244.43 48.8264 245.073C49.6786 245.715 50.6889 246.115 51.75 246.23C52.2751 246.262 52.8021 246.232 53.32 246.14C58.07 245.32 69.21 243.4 73.14 244.14C75.5 244.57 79.87 243.92 82.98 243.34C85.05 242.95 86.57 242.58 86.57 242.58C86.57 242.58 82.91 230.43 82.46 230.07C82.01 229.71 66.01 220.07 66.01 220.07L53.35 219.16C51.6456 219.415 50.1053 220.318 49.05 221.68C47.72 223.3 46.57 225.95 46.49 230.3C46.28 241.01 46.91 242.58 46.91 242.58Z" fill="#3F3D56"/>
<path opacity="0.05" d="M46.91 242.58C47.312 243.569 47.9742 244.43 48.8264 245.073C49.6785 245.715 50.6888 246.115 51.75 246.23C50.5101 244.629 49.3616 242.96 48.31 241.23L48.38 232.37C48.1284 229.94 48.4497 227.485 49.318 225.201C50.1862 222.917 51.5774 220.869 53.38 219.22V219.22C53.38 219.22 46.71 219.67 46.52 230.36C46.33 241.05 46.91 242.58 46.91 242.58Z" fill="black"/>
<path opacity="0.1" d="M101.82 223.2L113.61 213.97L132.15 195.7L127.15 195.47C126.4 195.95 124.3 197.47 124.22 199.29C124.13 201.52 119.22 199.45 116.65 200.72C114.08 201.99 101.58 218.02 99.39 217.91C97.2 217.8 95.46 216.8 94.54 218.36L94.48 218.46L101.82 223.2Z" fill="black"/>
<path opacity="0.1" d="M49.02 221.7C49.44 221.9 49.87 222.1 50.3 222.28C59.25 226.12 70.3 234.16 71.13 235.62C71.63 236.51 78.04 240.4 82.98 243.32C85.05 242.93 86.57 242.56 86.57 242.56C86.57 242.56 82.91 230.41 82.46 230.05C82.01 229.69 66.01 220.05 66.01 220.05L53.35 219.14C51.6286 219.398 50.0754 220.316 49.02 221.7V221.7Z" fill="black"/>
<path d="M24.18 195.52C25.36 198.44 35.32 209.68 35.32 209.68C35.32 209.68 41.62 217.9 50.58 221.68C59.54 225.46 70.58 233.56 71.4 235.02C71.93 235.96 79.07 240.26 84.09 243.21L85.22 243.87L87.71 245.32L89.03 246.07C89.03 246.07 92.09 243.62 95.14 241.15C98.19 238.68 101.14 236.26 101.14 236.15C101.14 236.04 102.42 232.77 102.14 232.59C101.86 232.41 101.37 231.23 100.21 229.76C98.9857 228.13 97.392 226.814 95.56 225.92C92.9095 224.558 90.7957 222.342 89.56 219.63C89.56 219.63 89.16 219.34 88.56 218.95C87.3163 218.095 85.9267 217.475 84.46 217.12C82.46 216.87 78.7 212.76 78.7 212.76C77.2377 211.808 76.0186 210.527 75.14 209.02C74.14 207.02 60.01 197.28 58.7 196.38L93.04 218.44L101.26 223.72L113.05 214.5L131.59 196.23L125.47 195.95C116.47 195.56 100.47 194.95 98.47 195.41C96.8317 195.787 95.1436 195.899 93.47 195.74C93.47 195.74 88.91 195.94 85.89 194.35C82.87 192.76 78.12 192.01 77.57 190.83C77.02 189.65 60.86 183.99 60.86 183.99C60.86 183.99 38.86 172.3 30.99 179.24C23.12 186.18 22.99 192.58 24.18 195.52Z" fill="#65617D"/>
<path d="M95.15 128.47L97.98 137.88L101.64 159.07L115.07 159.98L118.91 153.58L122.79 147.14C122.79 147.14 125.21 138.58 126.95 130.3C128.48 122.97 129.49 115.85 127.82 115.08C126.33 114.4 125.36 111.93 124.72 109.27C124.64 108.95 124.57 108.61 124.51 108.27C124.062 106.022 123.762 103.747 123.61 101.46C123.61 101.46 95.48 100 99.41 111.6C100.111 113.582 100.47 115.668 100.47 117.77C100.47 118.31 100.47 118.84 100.37 119.34C100.175 121.139 99.6107 122.879 98.7125 124.45C97.8143 126.021 96.6015 127.389 95.15 128.47V128.47Z" fill="#3498DB"/>
<path d="M89.31 126.92L90.31 142.92L92.59 156.53L95.15 162.84L97.44 197.32C97.44 197.32 119.44 199.87 124.82 197.27C125.217 197.118 125.563 196.858 125.82 196.52C132.29 186.75 130.17 158.45 130.17 158.45L132.63 140.18L130.99 130.7L126.99 130.28L123.93 129.95C123.93 129.95 123.24 130.8 122.24 132.12C119.53 135.69 114.55 142.73 114.89 145.66C115.34 149.66 114.34 153.79 112.78 154.43C111.22 155.07 109.95 156.17 109.68 155.07C109.291 154.148 109.194 153.129 109.4 152.15C109.68 150.59 108.21 145.84 108.21 145.84C108.21 145.84 105.75 140.27 105.93 137.9C106.11 135.53 105.66 132.78 104.93 132.14C104.2 131.5 103.19 130.86 104.01 127.94C104.83 125.02 100.41 119.33 100.41 119.33L89.31 126.92Z" fill="#E3E8F4"/>
<path opacity="0.1" d="M118.4 166.84L119.32 194.15L124.59 197.08C124.986 196.921 125.331 196.659 125.59 196.32C132.06 186.55 129.94 158.25 129.94 158.25L132.41 139.98L130.76 130.5L126.76 130.08C128.3 122.75 129.3 115.64 127.63 114.86C126.14 114.18 125.17 111.71 124.54 109.06L121.69 128.38C121.69 128.38 121.93 130.12 122.01 131.92C122.128 133.058 122.051 134.208 121.78 135.32C121.411 136.815 121.349 138.37 121.6 139.89C119.95 142.79 119.13 148.17 118.73 153.36C118.19 160.26 118.4 166.84 118.4 166.84Z" fill="black"/>
<path d="M124.62 108.58C124.62 108.58 129.23 109.15 130.69 111.07C132.15 112.99 135.99 113.27 135.99 113.27C135.99 113.27 140.37 114.73 140.28 115.09C140.19 115.45 141.56 116.01 144.28 116.74C147 117.47 151.59 120.12 151.59 120.74C151.59 121.36 158.8 128.5 158.8 129.23C158.8 129.96 160.99 132.7 160.72 137.54C160.45 142.38 160.17 148.54 161.27 149.54C162.37 150.54 161.27 154.47 161.27 154.47C160.974 154.898 160.809 155.402 160.793 155.922C160.777 156.441 160.911 156.955 161.18 157.4C162.09 159.04 160.99 165.89 160.99 165.89L161.09 173.02C161.09 173.02 160.09 177.49 161.27 177.68C162.45 177.87 161.09 179.87 161.09 179.87C161.09 179.87 160.09 183.52 161.36 185.17C162.63 186.82 163 193.84 163 193.84L182.55 222.25C182.55 222.25 182.83 227.46 176.62 227.37C170.41 227.28 170.49 228.56 170.68 229.74C170.87 230.92 168.94 232.21 168.94 232.21C168.94 232.21 166.48 233.49 167.94 235.04C169.4 236.59 173.6 240.16 166.66 242.53C165.842 241.402 165.17 240.176 164.66 238.88C164.072 237.268 163.584 235.622 163.2 233.95C163.2 233.95 162.56 227 161.28 226.09C160 225.18 160.18 220.79 160.18 220.79C160.18 220.79 162.01 217.23 159.45 215.79C156.89 214.35 119.81 193.79 119.81 193.79L118.91 166.47C118.91 166.47 118.27 146.28 122.11 139.52C121.859 138 121.921 136.445 122.29 134.95C122.93 133.31 122.2 128.01 122.2 128.01L124.62 108.58Z" fill="#3F3D56"/>
<path opacity="0.1" d="M100.68 119.58C100.68 119.58 91.5 117.69 89.03 118.97C86.56 120.25 81.73 121.25 81.03 121.97C80.33 122.69 78.48 122.16 76.83 126.45C75.18 130.74 75.01 135.13 72.9 137.14C70.79 139.15 69.71 140.52 69.62 141.98C69.53 143.44 69.89 143.81 69.07 144.26C68.25 144.71 67.07 146.64 67.42 147.37C67.77 148.1 86.42 164.18 86.42 164.18C86.42 164.18 87.34 170.3 88.16 171.85C88.98 173.4 87.25 194.78 85.42 196.24C83.59 197.7 97.71 197.58 97.71 197.58C97.71 197.58 98.35 183.58 98.9 182.82C99.45 182.06 98.53 167.11 98.53 167.11C98.53 167.11 98.44 154.32 99.63 150.94C100.82 147.56 100.63 136.32 100.63 136.32C100.63 136.32 101.68 129.58 102.96 128.01C104.24 126.44 100.68 119.58 100.68 119.58Z" fill="black"/>
<path d="M100.41 119.31C100.41 119.31 91.23 117.42 88.76 118.69C86.29 119.96 81.45 120.98 80.76 121.69C80.07 122.4 78.2 121.87 76.56 126.17C74.92 130.47 74.73 134.84 72.63 136.85C70.53 138.86 69.43 140.23 69.34 141.69C69.25 143.15 69.62 143.52 68.79 143.98C67.96 144.44 66.79 146.35 67.15 147.08C67.51 147.81 86.15 163.89 86.15 163.89C86.15 163.89 87.06 170.01 87.89 171.56C88.72 173.11 86.97 194.49 85.14 195.95C83.31 197.41 97.48 197.28 97.48 197.28C97.48 197.28 98.12 183.28 98.66 182.53C99.2 181.78 98.3 166.81 98.3 166.81C98.3 166.81 98.21 154.03 99.4 150.65C100.59 147.27 100.45 136.03 100.45 136.03C100.45 136.03 101.5 129.29 102.78 127.72C104.06 126.15 100.41 119.31 100.41 119.31Z" fill="#3F3D56"/>
<path opacity="0.1" d="M99.45 111.58C100.151 113.562 100.51 115.648 100.51 117.75C104.997 119.064 109.794 118.843 114.142 117.123C118.489 115.402 122.138 112.279 124.51 108.25C124.062 106.002 123.761 103.727 123.61 101.44C123.61 101.44 95.52 99.97 99.45 111.58Z" fill="black"/>
<path d="M85.56 97.14C85.5564 102.501 87.6105 107.66 91.2984 111.551C94.9864 115.443 100.027 117.77 105.381 118.055C110.735 118.339 115.994 116.557 120.073 113.078C124.152 109.599 126.74 104.687 127.304 99.355C127.868 94.0233 126.364 88.6785 123.103 84.423C119.842 80.1675 115.072 77.3257 109.777 76.4837C104.482 75.6417 99.066 76.8637 94.6457 79.8977C90.2254 82.9318 87.1379 87.5464 86.02 92.79C85.7135 94.2197 85.5593 95.6778 85.56 97.14V97.14Z" fill="#3498DB"/>
<path d="M72.13 145.58L67.13 147.13C67.2578 147.634 67.2308 148.165 67.0524 148.654C66.874 149.143 66.5526 149.567 66.13 149.87C65.695 150.174 65.3482 150.587 65.1251 151.068C64.902 151.55 64.8106 152.082 64.86 152.61C64.86 152.61 64.31 154.61 63.03 155.08C61.75 155.55 60.93 158.55 60.93 158.55L56.73 163.39C56.73 163.39 55.17 164.67 55.45 165.31C55.73 165.95 53.8 166.13 53.8 166.13L54.8 182.39L63.48 184.04L68.87 183.49L73.25 181.85L77.09 179.56L78.82 175.09L86.5 163.39L72.13 145.58Z" fill="#3F3D56"/>
<path d="M55.05 167.38C55.05 167.38 43.91 151.31 35.59 159.98C27.27 168.65 38.97 182.73 41.71 182.27C44.45 181.81 57.52 181.08 57.52 181.08L55.05 167.38Z" fill="#EE8E9E"/>
<path d="M81.2944 160.431L32.0838 135.314C31.3263 134.927 30.3987 135.228 30.0121 135.985L10.8229 173.581C10.4362 174.339 10.7369 175.267 11.4944 175.653L60.705 200.771C61.4625 201.157 62.3901 200.857 62.7768 200.099L81.966 162.503C82.3526 161.745 82.0519 160.818 81.2944 160.431Z" fill="#3F3D56"/>
<path d="M76.7171 162.665L33.0466 140.375L16.2487 173.286L59.9192 195.575L76.7171 162.665Z" fill="#8E44AD"/>
<path d="M22.97 156.76C23.4118 156.76 23.77 156.402 23.77 155.96C23.77 155.518 23.4118 155.16 22.97 155.16C22.5282 155.16 22.17 155.518 22.17 155.96C22.17 156.402 22.5282 156.76 22.97 156.76Z" fill="#E6E8EC"/>
<path d="M70.24 181.51C70.9746 181.51 71.57 180.915 71.57 180.18C71.57 179.445 70.9746 178.85 70.24 178.85C69.5055 178.85 68.91 179.445 68.91 180.18C68.91 180.915 69.5055 181.51 70.24 181.51Z" fill="#E6E8EC"/>
<path d="M47.84 170.76C47.74 182.82 72.68 185.38 72.68 185.38L79.05 186.38L81.91 186.83L83.1 175.05C83.1 175.05 81.79 174.85 80.16 174.47C77.74 173.91 74.61 172.94 73.96 171.57C72.91 169.3 47.91 158.7 47.84 170.76Z" fill="#3498DB"/>
<path opacity="0.1" d="M86.02 92.79C86.5934 92.8325 87.1343 93.0729 87.55 93.47C88.25 94.22 88.29 95.55 89.21 96.01C89.554 96.1551 89.9328 96.1968 90.3 96.13C92.73 95.79 94.13 93.05 96.47 92.29C97.8304 91.9404 99.2691 92.0638 100.55 92.64C101.07 92.8086 101.539 93.1082 101.91 93.51C102.69 94.51 102.14 96.01 102.5 97.23C103 98.93 105.03 99.6 106.78 99.82C108.53 100.04 110.51 100.17 111.68 101.49C112.067 101.985 112.345 102.556 112.495 103.167C112.645 103.777 112.664 104.412 112.55 105.03C112.445 105.46 112.445 105.91 112.55 106.34C113.03 107.71 115.4 107.5 116.02 106.42C116.48 105.63 116.34 104.98 117.41 104.76C118.174 104.699 118.942 104.833 119.64 105.15C121.502 105.789 123.462 106.09 125.43 106.04C126.682 103.371 127.355 100.467 127.406 97.5194C127.456 94.5717 126.884 91.6466 125.725 88.9358C124.566 86.225 122.847 83.7897 120.681 81.7896C118.516 79.7896 115.951 78.2698 113.157 77.3301C110.363 76.3904 107.401 76.0519 104.467 76.3368C101.533 76.6217 98.6917 77.5236 96.1304 78.9833C93.569 80.4431 91.3451 82.4277 89.6045 84.8071C87.8638 87.1865 86.6457 89.9069 86.03 92.79H86.02Z" fill="black"/>
<path d="M112.54 105.79C112.435 105.36 112.435 104.91 112.54 104.48C112.654 103.864 112.636 103.23 112.486 102.621C112.336 102.012 112.058 101.443 111.67 100.95C110.5 99.62 108.53 99.5 106.77 99.27C105.01 99.04 102.99 98.38 102.49 96.68C102.13 95.46 102.68 93.97 101.9 92.97C101.535 92.5612 101.064 92.2603 100.54 92.1C99.2601 91.5213 97.8215 91.3943 96.46 91.74C94.12 92.5 92.72 95.24 90.29 95.58C89.9229 95.6517 89.5427 95.6099 89.2 95.46C88.28 95 88.2 93.67 87.54 92.92C86.43 91.75 84.32 92.51 82.97 91.64C82.1513 90.9567 81.6223 89.9882 81.49 88.93C80.8853 86.969 80.7483 84.8935 81.09 82.87C81.88 79.48 84.92 77.15 86.85 74.24C88.66 71.54 89.68 68.12 92.39 66.33C95.1 64.54 98.59 64.94 101.66 65.85C103.071 66.3536 104.523 66.735 106 66.99C108.47 67.29 110.95 66.62 113.43 66.54C116.945 66.4264 120.399 67.4815 123.25 69.54C123.893 69.9594 124.439 70.5118 124.85 71.16C125.262 72.079 125.506 73.0647 125.57 74.07C125.862 75.958 126.518 77.7715 127.5 79.41C128.26 80.7 129.23 81.86 129.92 83.19C130.691 84.4938 130.928 86.0456 130.58 87.52C130.34 88.27 129.88 88.95 129.7 89.72C129.3 91.5 130.47 93.21 131.27 94.85C132.048 96.3511 132.418 98.0309 132.34 99.72C132.297 100.562 132.081 101.386 131.704 102.139C131.327 102.893 130.798 103.561 130.15 104.1C128.792 105.042 127.173 105.535 125.52 105.51C123.516 105.571 121.517 105.27 119.62 104.62C118.92 104.308 118.154 104.174 117.39 104.23C116.32 104.45 116.46 105.1 116 105.89C115.39 106.95 113.03 107.16 112.54 105.79Z" fill="#3F3D56"/>
<path opacity="0.1" d="M101.27 223.74L113.06 214.52L131.6 196.25L125.48 195.97C124.762 196.62 124.303 197.508 124.19 198.47C124.1 200.7 119.19 198.62 116.62 199.9C114.05 201.18 101.55 217.2 99.36 217.09C97.17 216.98 95.43 215.98 94.51 217.53L94.45 217.63C94.0851 218.05 93.594 218.342 93.05 218.46L101.27 223.74Z" fill="black"/>
<path d="M77.52 223.1L83.44 242.01L84.37 245.01L87.19 244.24L93.41 242.53L121.09 234.93C124.577 234.779 127.989 233.871 131.09 232.27C136.323 229.338 142.311 228.032 148.29 228.52C151.95 228.86 156.02 227.28 159.4 221.04C159.4 221.04 167.07 198.39 147.71 191.9C128.35 185.41 127.42 195.35 127.42 195.35L127.15 195.51C126.4 195.99 124.3 197.51 124.22 199.33C124.13 201.56 119.22 199.49 116.65 200.76C114.08 202.03 101.58 218.06 99.39 217.95C97.2 217.84 95.46 216.84 94.54 218.4L94.48 218.5C93.8 219.43 91.77 219.65 90.42 219.68C90.0003 219.702 89.5797 219.702 89.16 219.68L88.98 219.73L87.58 220.15L77.52 223.1Z" fill="#65617D"/>
<path opacity="0.1" d="M79.05 186.39L81.91 186.84L83.1 175.06C83.1 175.06 81.79 174.86 80.16 174.48C80.59 176.13 79.61 182.48 79.05 186.39Z" fill="black"/>
<path opacity="0.1" d="M153.75 131.33C153.75 131.33 162.24 128.86 160.14 152.98C158.682 167.702 152.424 181.535 142.33 192.35C142.33 192.35 124.24 200.29 116.11 199.01C107.98 197.73 102.05 197.46 102.05 197.46C99.4884 196.167 96.6856 195.421 93.82 195.27C89.26 195.09 79.67 192.27 79.48 191.34C79.29 190.41 81.86 177 80.76 176C80.76 176 93.55 176.52 94.83 177.44C96.11 178.36 97.94 177.71 99.31 177.44C100.68 177.17 104.88 173.53 113.19 176.73C113.19 176.73 116.02 177 117.12 176.27C118.017 175.852 119.038 175.788 119.98 176.09C120.691 175.854 121.364 175.517 121.98 175.09C122.25 174.73 124.45 175.09 124.45 175.09C124.581 175.149 124.723 175.178 124.866 175.177C125.01 175.176 125.151 175.144 125.281 175.083C125.411 175.022 125.527 174.934 125.619 174.825C125.712 174.716 125.781 174.588 125.82 174.45C126.109 173.705 126.544 173.025 127.1 172.45C127.1 172.45 129.56 158.57 134.22 153.36C134.592 153.035 134.878 152.623 135.052 152.16C135.227 151.698 135.284 151.2 135.22 150.71C134.84 149.23 142.79 128.4 153.75 131.33Z" fill="black"/>
<path d="M153.52 129.47C153.52 129.47 162.02 127.01 159.92 151.12C158.466 165.842 152.207 179.677 142.11 190.49C142.11 190.49 124.02 198.44 115.89 197.16C107.76 195.88 101.82 195.58 101.82 195.58C99.2623 194.286 96.4626 193.54 93.6 193.39C89.03 193.2 79.44 190.39 79.26 189.46C79.08 188.53 81.63 175.12 80.54 174.11C80.54 174.11 93.33 174.64 94.61 175.56C95.89 176.48 97.71 175.82 99.08 175.56C100.45 175.3 104.65 171.65 112.97 174.84C112.97 174.84 115.8 175.12 116.89 174.39C117.787 173.976 118.806 173.908 119.75 174.2C120.459 173.958 121.131 173.622 121.75 173.2C122.02 172.83 124.21 173.2 124.21 173.2C124.341 173.258 124.483 173.288 124.626 173.287C124.77 173.286 124.911 173.254 125.041 173.193C125.171 173.132 125.287 173.044 125.38 172.935C125.472 172.826 125.541 172.698 125.58 172.56C125.869 171.815 126.304 171.135 126.86 170.56C126.86 170.56 129.33 156.68 133.99 151.47C134.362 151.145 134.648 150.733 134.822 150.27C134.997 149.808 135.054 149.31 134.99 148.82C134.62 147.38 142.56 126.58 153.52 129.47Z" fill="#3F3D56"/>
<path opacity="0.1" d="M87.55 220.1L99.61 234.7L99.69 234.62C99.78 234.34 100.97 231.24 100.69 231.05C100.41 230.86 98.32 226.3 94.12 224.38C91.9837 223.338 90.1899 221.708 88.95 219.68L87.55 220.1Z" fill="black"/>
<path opacity="0.1" d="M87.71 245.37L89.03 246.12C89.03 246.12 92.0901 243.67 95.1401 241.2C98.1901 238.73 101.14 236.31 101.14 236.2C101.14 236.09 102.42 232.82 102.14 232.64C101.86 232.46 101.37 231.28 100.21 229.81C92.03 227.52 97.21 233.2 97.93 233.46C97.93 233.46 87.98 231.17 87.43 242.02C87.3826 243.144 87.4767 244.27 87.71 245.37V245.37Z" fill="black"/>
<path d="M97.8 249.96L99.54 250.96L117.17 251.41C119.147 252.612 121.237 253.617 123.41 254.41C123.698 254.496 123.992 254.559 124.29 254.6C125.926 254.734 127.57 254.764 129.21 254.69C130.56 254.69 131.6 254.6 131.6 254.6C131.6 254.6 130.77 232.37 130.14 230.03C129.84 228.91 128.36 229.15 126.9 229.71C125.805 230.158 124.749 230.693 123.74 231.31C123.74 231.31 116.26 232.04 115.07 232.68C113.88 233.32 110.5 232.31 108.4 232.68C106.3 233.05 102.55 230.21 102.55 230.21C92.32 226.83 98.08 233.13 98.81 233.41C98.81 233.41 88.81 231.12 88.3 241.97C87.79 252.82 97.8 249.96 97.8 249.96Z" fill="#3F3D56"/>
<path d="M123.29 241.38C123.48 245.98 127.07 251.69 129.21 254.71C130.56 254.71 131.6 254.62 131.6 254.62C131.6 254.62 130.77 232.39 130.14 230.05C129.84 228.93 128.36 229.17 126.9 229.73C125.13 233.05 123.13 237.66 123.29 241.38Z" fill="#565387"/>
<path opacity="0.1" d="M123.29 241.38C123.48 245.98 127.07 251.69 129.21 254.71C130.56 254.71 131.6 254.62 131.6 254.62C131.6 254.62 130.77 232.39 130.14 230.05C129.84 228.93 128.36 229.17 126.9 229.73C125.13 233.05 123.13 237.66 123.29 241.38Z" fill="black"/>
<path opacity="0.05" d="M120.27 241.99C121.49 246.43 121.47 251.41 123.41 254.43C123.698 254.516 123.992 254.579 124.29 254.62C125.926 254.754 127.57 254.784 129.21 254.71C130.56 254.71 131.6 254.62 131.6 254.62C131.6 254.62 130.77 232.39 130.14 230.05C129.84 228.93 128.36 229.17 126.9 229.73C125.806 230.178 124.749 230.713 123.74 231.33C123.74 231.33 118.72 236.3 120.27 241.99Z" fill="black"/>
<path opacity="0.1" d="M59.45 196.92C59.45 196.92 68.21 199.76 75.63 209.86L59.45 196.92Z" fill="black"/>
<g opacity="0.1">
<path opacity="0.1" d="M130.61 87.3C130.61 87.37 130.61 87.43 130.56 87.5C130.476 87.7607 130.372 88.0147 130.25 88.26C130.346 87.9316 130.467 87.6108 130.61 87.3Z" fill="black"/>
<path opacity="0.1" d="M81.07 82.87C81.2185 82.2306 81.4469 81.6123 81.75 81.03C81.75 81.18 81.65 81.34 81.61 81.5C81.2767 83.5246 81.417 85.5988 82.02 87.56C82.1526 88.6158 82.6773 89.5831 83.49 90.27C84.85 91.14 86.96 90.38 88.07 91.55C88.77 92.3 88.81 93.63 89.73 94.09C90.0727 94.2399 90.4529 94.2817 90.82 94.21C93.25 93.87 94.65 91.13 96.99 90.37C98.3511 90.0195 99.7913 90.1466 101.07 90.73C101.594 90.8903 102.065 91.1912 102.43 91.6C103.21 92.6 102.66 94.09 103.02 95.31C103.52 97.01 105.55 97.68 107.3 97.9C109.05 98.12 111.03 98.25 112.2 99.58C112.588 100.073 112.866 100.642 113.016 101.251C113.166 101.86 113.184 102.494 113.07 103.11C112.965 103.54 112.965 103.99 113.07 104.42C113.55 105.79 115.92 105.58 116.54 104.5C117 103.71 116.86 103.06 117.93 102.84C118.694 102.784 119.46 102.918 120.16 103.23C122.057 103.88 124.056 104.181 126.06 104.12C127.713 104.145 129.332 103.652 130.69 102.71C131.284 102.244 131.768 101.653 132.11 100.98C131.801 102.205 131.099 103.294 130.11 104.08C128.752 105.022 127.133 105.515 125.48 105.49C123.476 105.551 121.477 105.25 119.58 104.6C118.88 104.288 118.114 104.154 117.35 104.21C116.28 104.43 116.42 105.08 115.97 105.87C115.34 106.95 112.97 107.16 112.49 105.79C112.39 105.359 112.39 104.911 112.49 104.48C112.604 103.864 112.586 103.23 112.436 102.621C112.286 102.012 112.008 101.443 111.62 100.95C110.45 99.62 108.48 99.5 106.72 99.27C104.96 99.04 102.94 98.38 102.44 96.68C102.08 95.46 102.63 93.97 101.85 92.97C101.487 92.5627 101.021 92.2619 100.5 92.1C99.2165 91.5213 97.7749 91.3944 96.41 91.74C94.08 92.5 92.67 95.24 90.24 95.58C89.8729 95.6517 89.4927 95.6099 89.15 95.46C88.23 95 88.15 93.67 87.49 92.92C86.38 91.75 84.28 92.51 82.92 91.64C82.1013 90.9567 81.5723 89.9882 81.44 88.93C80.8453 86.9666 80.7186 84.8912 81.07 82.87V82.87Z" fill="black"/>
</g>
<path opacity="0.1" d="M132.03 155.99C130.35 158.25 128.44 160.34 126.96 162.72C125.352 165.066 124.571 167.881 124.74 170.72C126.27 169.15 126.98 166.97 127.94 165C129.58 161.66 132.02 158.83 134.09 155.77C134.48 155.18 137 151.77 135.73 151.63C134.67 151.48 132.6 155.22 132.03 155.99Z" fill="black"/>
<path d="M141.03 369.96C142.24 373.84 143.46 377.73 144.97 381.5C147.691 388.054 151.114 394.294 155.18 400.11C157.801 403.939 160.619 407.631 163.62 411.17C167.38 415.6 171.62 420.06 172.9 425.72C173.67 428.99 173.41 432.4 173.73 435.72C174.05 439.04 175.14 442.6 177.85 444.6C179.78 446.03 182.25 446.46 184.62 446.83C186.32 447.1 188.44 447.19 189.32 445.72C189.628 445.12 189.789 444.455 189.79 443.78L190.2 438.89C190.28 437.83 190.66 436.48 191.72 436.43C192.78 436.38 193.31 437.79 194.21 438.43C195.41 439.27 197.21 438.43 197.87 437.16C198.418 435.785 198.454 434.259 197.97 432.86C197.242 430.077 195.932 427.479 194.128 425.238C192.323 422.998 190.064 421.165 187.5 419.86C185.719 419.142 184.011 418.254 182.4 417.21C180.764 415.787 179.407 414.071 178.4 412.15C169.12 396.87 159.79 381.51 153.24 364.88C151.949 361.908 151.078 358.772 150.65 355.56C150.33 352.29 150.84 349 151.05 345.72C151.438 339.828 150.891 333.911 149.43 328.19C149.111 326.688 148.547 325.249 147.76 323.93C145.06 319.84 138.76 319.23 134.76 322.05C133.287 323.183 132.066 324.61 131.174 326.24C130.283 327.871 129.74 329.669 129.58 331.52C129.29 334.84 131.2 338.28 132.17 341.37C135.11 350.91 138.063 360.44 141.03 369.96Z" fill="#3498DB"/>
<path opacity="0.05" d="M141.03 369.96C142.24 373.84 143.46 377.73 144.97 381.5C147.691 388.054 151.114 394.294 155.18 400.11C157.801 403.939 160.619 407.631 163.62 411.17C167.38 415.6 171.62 420.06 172.9 425.72C173.67 428.99 173.41 432.4 173.73 435.72C174.05 439.04 175.14 442.6 177.85 444.6C179.78 446.03 182.25 446.46 184.62 446.83C186.32 447.1 188.44 447.19 189.32 445.72C189.628 445.12 189.789 444.455 189.79 443.78L190.2 438.89C190.28 437.83 190.66 436.48 191.72 436.43C192.78 436.38 193.31 437.79 194.21 438.43C195.41 439.27 197.21 438.43 197.87 437.16C198.418 435.785 198.454 434.259 197.97 432.86C197.242 430.077 195.932 427.479 194.128 425.238C192.323 422.998 190.064 421.165 187.5 419.86C185.719 419.142 184.011 418.254 182.4 417.21C180.764 415.787 179.407 414.071 178.4 412.15C169.12 396.87 159.79 381.51 153.24 364.88C151.949 361.908 151.078 358.772 150.65 355.56C150.33 352.29 150.84 349 151.05 345.72C151.438 339.828 150.891 333.911 149.43 328.19C149.111 326.688 148.547 325.249 147.76 323.93C145.06 319.84 138.76 319.23 134.76 322.05C133.287 323.183 132.066 324.61 131.174 326.24C130.283 327.871 129.74 329.669 129.58 331.52C129.29 334.84 131.2 338.28 132.17 341.37C135.11 350.91 138.063 360.44 141.03 369.96Z" fill="#3498DB"/>
<path d="M82.73 533.34C84.5393 533.969 86.463 534.201 88.37 534.02C88.51 532.46 90.61 532.11 92.17 532.19C92.9246 532.165 93.6725 532.337 94.34 532.69C94.73 532.94 95.03 533.3 95.41 533.56C96.0876 533.931 96.8473 534.127 97.62 534.13L105.74 534.81C109.36 535.12 113.13 535.4 116.52 534.11C117.195 533.896 117.796 533.494 118.25 532.95C119.17 531.63 118.25 529.74 116.98 528.78C115.71 527.82 114.07 527.39 112.79 526.41C109.97 524.26 109.58 520.24 108.09 517.02C107.031 514.99 105.724 513.099 104.2 511.39C103.096 509.923 101.809 508.602 100.37 507.46C97.11 505.11 93.37 505.16 89.54 504.82C86.84 504.58 84.3001 504.42 82.3601 506.82C79.9601 509.82 80.92 515.82 81.07 519.32C81.2573 524.029 81.8124 528.717 82.73 533.34Z" fill="#514E7F"/>
<path opacity="0.05" d="M82.73 533.34C84.5393 533.969 86.463 534.201 88.37 534.02C88.51 532.46 90.61 532.11 92.17 532.19C92.9246 532.165 93.6725 532.337 94.34 532.69C94.73 532.94 95.03 533.3 95.41 533.56C96.0876 533.931 96.8473 534.127 97.62 534.13L105.74 534.81C109.36 535.12 113.13 535.4 116.52 534.11C117.195 533.896 117.796 533.494 118.25 532.95C119.17 531.63 118.25 529.74 116.98 528.78C115.71 527.82 114.07 527.39 112.79 526.41C109.97 524.26 109.58 520.24 108.09 517.02C107.031 514.99 105.724 513.099 104.2 511.39C103.096 509.923 101.809 508.602 100.37 507.46C97.11 505.11 93.37 505.16 89.54 504.82C86.84 504.58 84.3001 504.42 82.3601 506.82C79.9601 509.82 80.92 515.82 81.07 519.32C81.2573 524.029 81.8124 528.717 82.73 533.34Z" fill="black"/>
<path d="M86.01 375.39C83.53 376.19 82.45 379.28 82.91 381.85C83.37 384.42 84.91 386.64 86.18 388.92C89.8 395.39 91.36 402.79 94.4 409.54C96.67 414.54 99.74 419.24 101.98 424.3C104.22 429.36 105.61 435.07 104.25 440.44C103.59 443.05 102.31 445.44 101.46 448.01C100.619 450.796 100.069 453.661 99.82 456.56C98.7188 466.408 98.5213 476.336 99.23 486.22C99.2361 487.425 99.4879 488.616 99.97 489.72C100.48 490.72 101.36 491.72 100.97 492.72C100.8 493.13 100.43 493.43 100.25 493.83C99.73 494.95 100.77 496.14 101.72 496.94C101.55 497.241 101.322 497.504 101.049 497.716C100.776 497.927 100.464 498.081 100.13 498.17C100.811 498.604 101.335 499.246 101.623 500C101.911 500.755 101.949 501.582 101.73 502.36C100.89 502.49 100.84 503.78 101.37 504.46C101.9 505.14 102.74 505.56 103.12 506.33C103.344 506.957 103.319 507.646 103.052 508.256C102.784 508.866 102.293 509.35 101.68 509.61C100.431 510.091 99.0679 510.195 97.76 509.91C95.5425 509.601 93.3525 509.12 91.21 508.47C90.09 508.25 89.087 507.633 88.3852 506.733C87.6835 505.833 87.3301 504.71 87.39 503.57C86.8948 499.5 86.7443 495.395 86.94 491.3C87.29 471.46 86.94 451.6 86.08 431.77C85.73 423.77 83.33 416.02 80.24 408.66C78.5319 404.899 76.6328 401.227 74.55 397.66C70.09 389.5 66.15 380.46 67.17 371.21C67.28 370.21 67.64 369.02 68.63 368.86C69.017 368.818 69.4079 368.884 69.76 369.05C71.8143 370.009 73.8021 371.105 75.71 372.33C78.8452 374.168 82.3797 375.218 86.01 375.39Z" fill="#464353"/>
<path opacity="0.05" d="M86.01 375.39C83.53 376.19 82.45 379.28 82.91 381.85C83.37 384.42 84.91 386.64 86.18 388.92C89.8 395.39 91.36 402.79 94.4 409.54C96.67 414.54 99.74 419.24 101.98 424.3C104.22 429.36 105.61 435.07 104.25 440.44C103.59 443.05 102.31 445.44 101.46 448.01C100.619 450.796 100.069 453.661 99.82 456.56C98.7188 466.408 98.5213 476.336 99.23 486.22C99.2361 487.425 99.4879 488.616 99.97 489.72C100.48 490.72 101.36 491.72 100.97 492.72C100.8 493.13 100.43 493.43 100.25 493.83C99.73 494.95 100.77 496.14 101.72 496.94C101.55 497.241 101.322 497.504 101.049 497.716C100.776 497.927 100.464 498.081 100.13 498.17C100.811 498.604 101.335 499.246 101.623 500C101.911 500.755 101.949 501.582 101.73 502.36C100.89 502.49 100.84 503.78 101.37 504.46C101.9 505.14 102.74 505.56 103.12 506.33C103.344 506.957 103.319 507.646 103.052 508.256C102.784 508.866 102.293 509.35 101.68 509.61C100.431 510.091 99.0679 510.195 97.76 509.91C95.5425 509.601 93.3525 509.12 91.21 508.47C90.09 508.25 89.087 507.633 88.3852 506.733C87.6835 505.833 87.3301 504.71 87.39 503.57C86.8948 499.5 86.7443 495.395 86.94 491.3C87.29 471.46 86.94 451.6 86.08 431.77C85.73 423.77 83.33 416.02 80.24 408.66C78.5319 404.899 76.6328 401.227 74.55 397.66C70.09 389.5 66.15 380.46 67.17 371.21C67.28 370.21 67.64 369.02 68.63 368.86C69.017 368.818 69.4079 368.884 69.76 369.05C71.8143 370.009 73.8021 371.105 75.71 372.33C78.8452 374.168 82.3797 375.218 86.01 375.39Z" fill="black"/>
<path d="M53.2464 353.342C51.9657 352.523 50.4884 352.059 48.9676 352C47.2046 352.089 45.6991 353.243 44.3223 354.348C42.691 355.595 41.1426 356.946 39.687 358.393C36.6725 361.594 34.5723 365.539 33.604 369.82C32.6357 374.102 32.8345 378.563 34.18 382.742C35.636 387.093 38.3003 390.931 40.9349 394.689L46.2835 402.345C54.4449 414.017 62.6063 425.688 71.154 437.083C71.1559 437.363 71.247 437.636 71.4144 437.861C71.5817 438.086 71.8166 438.252 72.085 438.336C72.3921 438.415 72.7784 438.405 72.9665 438.662C73.0536 438.821 73.0914 439.003 73.0755 439.185C73.0564 440.027 72.8957 440.861 72.6001 441.651C72.4613 441.911 72.4259 442.214 72.501 442.499C72.7784 443.141 73.9471 442.776 74.3235 443.377C74.5711 443.772 74.264 444.285 73.9372 444.621C73.6103 444.956 73.2042 445.331 73.2637 445.795C73.3231 446.258 74.1353 446.781 74.1056 447.353C74.1056 447.689 73.8084 447.945 73.6004 448.212C73.3093 448.636 73.1766 449.149 73.2255 449.661C73.2744 450.173 73.5016 450.651 73.8679 451.014C74.4324 456.578 71.3917 461.866 70.7875 467.411C69.7971 476.172 73.8084 484.725 74.2938 493.516C74.2647 494.505 74.454 495.488 74.8484 496.397C75.6705 497.916 77.8198 498.833 77.7108 500.56C77.5554 501.269 77.3536 501.968 77.1067 502.652C76.9383 503.638 77.4137 504.625 77.4335 505.611C77.4533 506.598 76.5718 507.811 75.6408 507.417C76.3407 509.745 76.9647 512.093 77.5128 514.461L96.2325 516C96.4344 514.324 96.3776 512.627 96.0641 510.968C95.6779 509.163 94.8657 507.486 94.4398 505.7C94.1629 504.821 94.085 503.892 94.2117 502.979C94.3384 502.066 94.6666 501.193 95.1727 500.422C94.6848 500.428 94.2105 500.261 93.8335 499.953C93.4566 499.644 93.2013 499.213 93.1126 498.735C92.9559 497.773 92.9726 496.79 93.1621 495.834C93.6573 490.97 91.607 486.176 91.6665 481.292C91.7259 477.444 93.0829 473.745 93.7663 469.966C95.2322 461.876 93.7069 453.105 97.322 445.716C99.511 441.266 102.542 436.333 100.085 432.022C98.8771 429.891 96.7377 428.431 95.3411 426.418C94.2027 424.516 93.3485 422.459 92.8055 420.311C89.9233 411.432 85.2582 403.184 81.1676 394.739C80.0323 392.622 79.1893 390.362 78.6617 388.02C78.3727 385.965 78.2667 383.888 78.3448 381.815C78.3447 378.091 78.1165 374.372 77.6613 370.676C77.5689 369.057 77.1047 367.481 76.3044 366.069C75.4962 365 74.4869 364.099 73.333 363.415C67.1921 359.222 59.8825 356.824 53.2464 353.342Z" fill="#464353"/>
<path d="M75.13 540.27C76.9447 540.891 78.8705 541.119 80.78 540.94C80.92 539.38 83.01 539.03 84.57 539.11C85.3245 539.085 86.0725 539.257 86.74 539.61C87.13 539.86 87.43 540.23 87.82 540.48C88.4958 540.856 89.2567 541.052 90.03 541.05L98.14 541.73C101.77 542.04 105.53 542.33 108.93 541.03C109.604 540.819 110.202 540.416 110.65 539.87C111.57 538.55 110.65 536.67 109.38 535.71C108.11 534.75 106.47 534.31 105.2 533.33C102.37 531.18 101.99 527.17 100.49 523.95C99.4406 521.913 98.1368 520.018 96.61 518.31C95.5019 516.845 94.2115 515.528 92.77 514.39C89.52 512.03 85.77 512.08 81.95 511.74C79.24 511.5 76.7 511.35 74.77 513.74C72.37 516.74 73.33 522.74 73.47 526.25C73.6579 530.959 74.2129 535.647 75.13 540.27Z" fill="#514E7F"/>
<path d="M158.9 318.54C169.239 318.54 177.62 310.159 177.62 299.82C177.62 289.481 169.239 281.1 158.9 281.1C148.561 281.1 140.18 289.481 140.18 299.82C140.18 310.159 148.561 318.54 158.9 318.54Z" fill="#3498DB"/>
<path d="M141.24 305.38C138.56 307.69 134.71 307.86 131.19 308.22C123.663 308.993 116.337 311.114 109.56 314.48C108.622 314.884 107.773 315.469 107.06 316.2C106.452 316.993 106.019 317.907 105.79 318.88C105.146 320.986 104.905 323.195 105.08 325.39C105.325 327.519 105.938 329.59 106.89 331.51C109.488 336.889 113.497 341.461 118.49 344.74C119.37 345.395 120.368 345.874 121.43 346.15C123.89 346.66 126.27 345.24 128.7 344.6C130.91 344.023 133.24 344.096 135.41 344.81C137.41 345.49 139.6 346.73 141.58 345.9C142.847 345.191 143.832 344.069 144.37 342.72C146.282 339.106 147.989 335.387 149.48 331.58C150.016 330.094 150.633 328.638 151.33 327.22C153.5 323.09 157.25 319.9 159.12 315.61C159.31 315.283 159.425 314.917 159.456 314.54C159.487 314.163 159.434 313.784 159.3 313.43C158.953 312.952 158.473 312.587 157.92 312.38C155.155 310.797 152.635 308.819 150.44 306.51C149.21 305.33 146.95 302.14 145.18 301.86C143.19 301.52 142.59 304.22 141.24 305.38Z" fill="#3498DB"/>
<path d="M141.68 343.42C139.51 344.42 136.95 343.99 134.6 343.5C128.54 342.23 122.41 340.95 116.8 338.33C115.047 337.659 113.529 336.491 112.43 334.97C111.748 333.669 111.333 332.244 111.21 330.78L110.21 323.78C109.85 321.35 110.47 319.1 110.53 316.64C110.568 316.367 110.552 316.09 110.481 315.824C110.411 315.558 110.288 315.308 110.12 315.09C109.778 314.802 109.335 314.662 108.89 314.7C106.08 314.75 104.38 317.7 102.41 319.7C101.271 320.854 99.9107 321.766 98.41 322.38C96.61 323.12 94.41 323.64 93.66 325.44C93.36 326.19 93.4 327.04 93.08 327.79C91.82 330.79 86.45 329.79 85.08 332.79C84.69 333.63 84.72 334.68 84.08 335.34C83.44 336 82.24 335.99 81.25 336.15C77.34 336.79 75.45 341.3 72.11 343.43C69.3 345.23 65.68 345.19 62.65 346.59C60.97 347.37 59.48 348.59 57.7 349.1C55.92 349.61 53.91 349.34 52 349.39C51.7963 349.371 51.5909 349.394 51.3965 349.457C51.202 349.521 51.0228 349.624 50.87 349.76C50.7513 349.941 50.6729 350.145 50.6401 350.359C50.6073 350.573 50.6209 350.792 50.68 351C51.6061 356.913 54.0564 362.483 57.7895 367.161C61.5227 371.839 66.4099 375.465 71.97 377.68C72.6154 377.885 73.2283 378.182 73.79 378.56C75.49 379.83 75.79 382.56 77.72 383.46C78.4165 383.705 79.1673 383.753 79.8892 383.597C80.6111 383.442 81.2759 383.09 81.81 382.58C82.8747 381.555 83.8766 380.466 84.81 379.32C86.5722 377.479 88.8851 376.261 91.4 375.85C93.72 375.48 96.31 375.75 98.19 374.32C98.9588 373.614 99.6742 372.852 100.33 372.04C101.723 370.741 103.376 369.752 105.18 369.14C110.109 367.193 115.319 366.048 120.61 365.75C125.54 365.48 130.61 365.93 135.27 364.33C136.48 363.955 137.595 363.324 138.54 362.48C139.542 361.396 140.287 360.101 140.72 358.69C142.401 353.778 142.733 348.504 141.68 343.42V343.42Z" fill="#3F3D56"/>
<path d="M117.55 315.83C118.93 315.7 120.32 315.83 121.71 315.83C123.34 315.83 124.95 315.43 126.58 315.42C129.161 315.462 131.661 316.328 133.716 317.891C135.77 319.455 137.271 321.633 138 324.11C138.137 324.506 138.162 324.931 138.07 325.34C138.016 325.542 137.892 325.717 137.719 325.835C137.546 325.952 137.337 326.004 137.13 325.98C136.589 324.501 135.881 323.089 135.02 321.77C133.47 319.654 131.261 318.113 128.74 317.39C126.227 316.678 123.578 316.582 121.02 317.11C119.95 317.31 118.91 317.59 117.87 317.88L112.87 319.26C111.95 319.51 111.02 319.76 110.13 320.09C109.44 320.35 108.26 321.3 107.58 321.34C106.66 321.34 107.4 320.54 107.81 320C108.626 318.886 109.769 318.055 111.08 317.62C113.158 316.769 115.33 316.168 117.55 315.83V315.83Z" fill="#3F3D56"/>
<path d="M130.17 372.06C131.38 375.94 132.59 379.83 134.11 383.6C136.827 390.156 140.25 396.396 144.32 402.21C146.941 406.039 149.759 409.731 152.76 413.27C156.51 417.7 160.7 422.16 162.04 427.81C162.81 431.09 162.55 434.5 162.87 437.81C163.19 441.12 164.28 444.69 166.98 446.69C168.92 448.11 171.39 448.54 173.76 448.92C175.45 449.19 177.57 449.28 178.46 447.81C178.762 447.207 178.923 446.544 178.93 445.87L179.33 440.98C179.42 439.92 179.8 438.57 180.85 438.52C181.9 438.47 182.45 439.88 183.35 440.52C184.55 441.36 186.35 440.52 187.01 439.25C187.554 437.874 187.589 436.35 187.11 434.95C186.378 432.168 185.068 429.572 183.263 427.332C181.459 425.092 179.202 423.258 176.64 421.95C174.857 421.23 173.146 420.342 171.53 419.3C169.89 417.876 168.534 416.156 167.53 414.23C158.24 398.96 148.91 383.6 142.37 366.96C141.08 363.991 140.205 360.858 139.77 357.65C139.46 354.38 139.96 351.09 140.18 347.81C140.568 341.918 140.021 336.001 138.56 330.28C138.241 328.776 137.674 327.336 136.88 326.02C134.19 321.92 127.88 321.32 123.88 324.14C122.406 325.272 121.183 326.699 120.29 328.329C119.396 329.96 118.851 331.758 118.69 333.61C118.4 336.93 120.32 340.37 121.28 343.46C124.233 353.007 127.197 362.54 130.17 372.06Z" fill="#3498DB"/>
<path d="M186.13 286.58C186.28 285.02 184.88 283.58 183.29 282.58C181.615 281.722 180.007 280.739 178.48 279.64C177.06 278.41 176.28 276.81 174.86 275.58C173.246 274.351 171.413 273.438 169.46 272.89C165.305 271.433 160.943 270.653 156.54 270.58C152.09 270.58 147.54 271.58 144.19 273.85C143.363 274.37 142.649 275.05 142.09 275.85C141.562 276.81 141.222 277.862 141.09 278.95C140.292 282.305 139.211 285.587 137.86 288.76C136.47 292.29 134.99 295.95 131.72 298.68C128.22 301.59 122.87 303.27 120.56 306.79C120.304 307.103 120.125 307.471 120.037 307.865C119.948 308.259 119.953 308.668 120.05 309.06C120.38 309.95 121.44 310.56 122.42 311.12C128.1 314.38 133 318.61 135.52 323.66C138.04 328.71 137.97 334.66 134.38 339.31C133.06 341.03 131.24 343.07 132.53 344.8C134.53 347.43 141.22 345.92 142.78 348.7C143.27 349.59 142.98 350.6 142.98 351.57C142.98 354.49 145.79 357.08 149.2 358.43C152.61 359.78 156.56 360.1 160.4 360.27C161.419 357.979 161.52 355.383 160.68 353.02C160.424 352.51 160.323 351.936 160.39 351.37C160.676 350.741 161.121 350.196 161.68 349.79C165.78 345.91 164.91 340.21 162.45 335.6C159.99 330.99 156.15 326.78 154.72 321.93C154.01 319.52 154.01 316.81 155.92 314.81C157.016 313.848 158.198 312.988 159.45 312.24C161.687 310.722 163.41 308.559 164.39 306.04C165.54 302.85 165.39 299.04 168.73 296.89C171.94 294.89 176.45 295.47 180 294.1C182.73 293.02 185.91 288.87 186.13 286.58Z" fill="#464353"/>
<path d="M380.03 443.27C364.78 436.96 360.3 432.4 360.3 423.27C360.3 416.27 363.38 408.19 376.88 408.19C384.343 408.08 391.673 410.167 397.96 414.19L402.35 402.58C397.26 399.58 390.08 396.79 379.56 396.44V379.44H370.69V397.14C354.56 399.77 345.22 410.81 345.22 425.36C345.22 440.61 354.22 448.68 372.14 455.69C385.12 460.98 391.91 466.94 391.91 476.58C391.91 486.58 383.5 493.76 371.05 493.76C361.24 493.76 350.12 490.43 343.81 486.22L339.6 497.96C345.74 502.35 356.26 505.5 366.42 505.68V523.38H381.51V505.15C399.51 502.15 409.2 489.15 409.2 475.35C409.2 459.75 398.09 450.63 380.03 443.27Z" fill="url(#paint1_linear_19_2)"/>
<path d="M366.46 519.38V501.68C356.3 501.5 345.78 498.35 339.64 493.96L343.85 482.22C350.16 486.43 361.28 489.76 371.09 489.76C383.54 489.76 391.91 482.58 391.91 472.58C391.91 462.94 385.08 456.98 372.1 451.72C354.22 444.72 345.18 436.64 345.18 421.39C345.18 406.84 354.52 395.8 370.65 393.17V375.47H379.52V392.47C390.04 392.82 397.22 395.62 402.31 398.61L397.92 410.17C391.633 406.147 384.303 404.06 376.84 404.17C363.34 404.17 360.26 412.24 360.26 419.25C360.26 428.36 364.74 432.92 379.99 439.25C398.05 446.61 409.16 455.73 409.16 471.33C409.16 485.18 399.52 498.15 381.47 501.13V519.38H366.46Z" fill="#2ECC71"/>
</g>
<defs>
<linearGradient id="paint0_linear_19_2" x1="103.81" y1="254.06" x2="103.81" y2="63.16" gradientUnits="userSpaceOnUse">
<stop stop-color="#808080" stop-opacity="0.25"/>
<stop offset="0.54" stop-color="#808080" stop-opacity="0.12"/>
<stop offset="1" stop-color="#808080" stop-opacity="0.1"/>
</linearGradient>
<linearGradient id="paint1_linear_19_2" x1="339.64" y1="451.42" x2="409.2" y2="451.42" gradientUnits="userSpaceOnUse">
<stop stop-color="#808080" stop-opacity="0.25"/>
<stop offset="0.54" stop-color="#808080" stop-opacity="0.12"/>
<stop offset="1" stop-color="#808080" stop-opacity="0.1"/>
</linearGradient>
<clipPath id="clip0_19_2">
<rect width="744" height="554" fill="white"/>
</clipPath>
</defs>
</svg>
