<svg width="960" height="270" viewBox="0 0 960 270" fill="none" xmlns="http://www.w3.org/2000/svg">
<g clip-path="url(#clip0_13_59)">
<path d="M0 118.418L14.5 131.418C29 144.418 58 170.418 87.2 170.918C116.3 171.418 145.7 146.418 174.8 147.118C204 147.718 233 174.118 262 164.418C291 154.718 320 109.118 349 103.918C378 98.7183 407 134.118 436.2 149.918C465.3 165.718 494.7 162.118 523.8 147.418C553 132.718 582 107.118 611 105.418C640 103.718 669 126.118 698 144.218C727 162.418 756 176.418 785.2 162.618C814.3 148.718 843.7 107.118 872.8 100.118C902 93.1183 931 120.718 945.5 134.618L960 148.418" stroke="#E74C3C" stroke-width="8" stroke-linecap="round"/>
</g>
<defs>
<clipPath id="clip0_13_59">
<rect width="960" height="270" fill="white"/>
</clipPath>
</defs>
</svg>
