<svg viewBox="0 0 645 567" fill="none" xmlns="http://www.w3.org/2000/svg">
<g id="Frame 1">
<g id="RedBox1">
<g id="fc914514-1042-4f3e-9382-2a2bd3a05a2f" filter="url(#filter0_d_2_39)">
<path d="M15.322 136.593C14.4412 136.594 13.5968 136.936 12.9741 137.543C12.3513 138.15 12.001 138.972 12 139.831V250.256C12.001 251.114 12.3513 251.937 12.9741 252.544C13.5968 253.151 14.4412 253.492 15.322 253.493H401.677C402.558 253.492 403.402 253.151 404.025 252.544C404.648 251.937 404.998 251.114 404.999 250.256V139.831C404.998 138.972 404.648 138.15 404.025 137.543C403.402 136.936 402.558 136.594 401.677 136.593H15.322Z" fill="#34495E"/>
</g>
<path id="fc60a940-5b5f-47e1-886f-8b9349204f05" d="M20.3238 245.381H396.672V144.706H20.3238V245.381Z" fill="#34495E"/>
<path id="b37dca77-34e7-4938-924b-74ea49a8e34b" d="M349.168 224.494C348.445 224.494 347.73 224.633 347.062 224.903C346.395 225.172 345.788 225.567 345.277 226.065C344.766 226.563 344.361 227.155 344.084 227.805C343.807 228.456 343.665 229.153 343.665 229.858C343.665 230.562 343.807 231.259 344.084 231.91C344.361 232.561 344.766 233.152 345.277 233.65C345.788 234.148 346.395 234.543 347.062 234.813C347.73 235.082 348.445 235.221 349.168 235.221H371.18C371.902 235.221 372.618 235.082 373.286 234.813C373.953 234.543 374.56 234.148 375.071 233.65C375.582 233.152 375.987 232.561 376.264 231.91C376.54 231.259 376.683 230.562 376.683 229.858C376.683 229.153 376.54 228.456 376.264 227.805C375.987 227.155 375.582 226.563 375.071 226.065C374.56 225.567 373.953 225.172 373.286 224.903C372.618 224.633 371.902 224.494 371.18 224.494H349.168Z" fill="#E74C3C"/>
<path id="a114a1b8-363a-4115-bcea-0275bda15cb1" d="M376.683 214.092H122.584V215.504H376.683V214.092Z" fill="#E6E6E6"/>
<path id="fd059875-cd6f-429e-81eb-c199f1a3d666" d="M69.4703 226.28C87.172 226.28 101.522 212.295 101.522 195.043C101.522 177.792 87.172 163.807 69.4703 163.807C51.7687 163.807 37.4187 177.792 37.4187 195.043C37.4187 212.295 51.7687 226.28 69.4703 226.28Z" fill="#E74C3C"/>
<path id="RedBox1Line" d="M122.989 206.213L122.186 205.038L148.59 187.883L166.696 196.354L192.74 180.138L193.092 180.284L244.548 201.676L285.804 181.925L325.867 197.754L376.206 207.726L377.166 208.783L326.154 199.391L285.86 183.469L244.588 203.227L192.874 181.728L166.795 197.965L148.705 189.503L122.989 206.213Z" fill="#3F3D56" stroke="url(#paint0_linear_2_39)" stroke-width="2"/>
<path id="Vector" d="M82.3629 194.655C82.0024 194.304 81.5135 194.107 81.0037 194.107C80.4939 194.107 80.005 194.304 79.6445 194.655L79.6444 194.655L71.3926 202.697V182.867C71.3883 182.373 71.1839 181.9 70.8239 181.552C70.4639 181.204 69.9774 181.009 69.4703 181.009C68.9633 181.009 68.4768 181.204 68.1167 181.552C67.7567 181.9 67.5523 182.373 67.5481 182.867V202.697L59.2963 194.655C58.9364 194.304 58.4484 194.107 57.9394 194.106C57.4304 194.106 56.9418 194.302 56.581 194.652C56.2201 195.001 56.0164 195.477 56.0145 195.973C56.0126 196.469 56.2127 196.945 56.5708 197.298L56.5778 197.305L68.1111 208.545C68.4716 208.896 68.9605 209.093 69.4703 209.093C69.9801 209.093 70.4691 208.896 70.8296 208.545L82.3629 197.305C82.7233 196.953 82.9258 196.477 82.9258 195.98C82.9258 195.483 82.7233 195.007 82.3629 194.655Z" fill="white"/>
</g>
<g id="GreenBox2">
<g id="ebf544e0-cedc-491d-9ace-ce79788cc3b4" filter="url(#filter1_d_2_39)">
<path d="M15.322 6C14.4413 6.00094 13.5968 6.34237 12.9741 6.94932C12.3513 7.55627 12.001 8.37919 12 9.23755V119.663C12.001 120.521 12.3513 121.344 12.9741 121.951C13.5968 122.558 14.4413 122.899 15.322 122.9H401.678C402.559 122.899 403.403 122.558 404.026 121.951C404.649 121.344 404.999 120.521 405 119.663V9.23755C404.999 8.37919 404.649 7.55627 404.026 6.94932C403.403 6.34237 402.559 6.00094 401.678 6H15.322Z" fill="#34495E"/>
</g>
<path id="f05ecdaf-6a8f-49c4-b8a7-f7e5ce9efcf7" d="M20.3251 114.788H396.675V14.1122H20.3251V114.788Z" fill="#34495E"/>
<path id="a9f7bc9d-00a6-4157-bba1-ffc7ec111a68" d="M349.169 93.9036C347.71 93.9036 346.31 94.4686 345.278 95.4744C344.246 96.4802 343.666 97.8444 343.666 99.2668C343.666 100.689 344.246 102.053 345.278 103.059C346.31 104.065 347.71 104.63 349.169 104.63H371.178C372.638 104.63 374.038 104.065 375.07 103.059C376.102 102.053 376.682 100.689 376.682 99.2668C376.682 97.8444 376.102 96.4802 375.07 95.4744C374.038 94.4686 372.638 93.9036 371.178 93.9036H349.169Z" fill="#2ECC71"/>
<path id="a15d3d52-efbb-4636-8d15-228635c5d6e5" d="M376.685 83.5001H122.586V84.9117H376.685V83.5001Z" fill="#E6E6E6"/>
<path id="e4ee77d8-efe6-4a2a-a3ed-71b8f3ee957e" d="M69.4704 95.688C87.172 95.688 101.522 81.7028 101.522 64.4512C101.522 47.1997 87.172 33.2145 69.4704 33.2145C51.7687 33.2145 37.4187 47.1997 37.4187 64.4512C37.4187 81.7028 51.7687 95.688 69.4704 95.688Z" fill="#2ECC71"/>
<path id="GreenBox2Line" d="M122.988 75.6205L122.184 74.4464L148.588 57.2911L166.695 65.7619L192.739 49.5458L193.091 49.6918L244.546 71.0842L285.803 51.3325L325.866 67.1604L376.205 23.7085L377.165 24.7651L326.153 68.794L285.859 52.8735L244.588 72.6311L192.874 51.1319L166.795 67.3694L148.71 58.9105L122.988 75.6205Z" fill="#3F3D56" stroke="url(#paint1_linear_2_39)" stroke-width="2"/>
<path id="Vector_2" d="M56.5778 64.8392C56.7563 65.0132 56.9682 65.1512 57.2014 65.2453C57.4346 65.3395 57.6846 65.3879 57.937 65.3879C58.1894 65.3879 58.4394 65.3395 58.6726 65.2453C58.9058 65.1512 59.1177 65.0133 59.2962 64.8393L59.2963 64.8392L67.5481 56.7973V76.6279C67.5481 77.1248 67.7507 77.6012 68.1111 77.9526C68.4716 78.3039 68.9606 78.5013 69.4704 78.5013C69.9802 78.5013 70.4691 78.3039 70.8296 77.9526C71.1901 77.6012 71.3926 77.1248 71.3926 76.6279V56.7973L79.6444 64.8392C79.8229 65.0132 80.0348 65.1512 80.268 65.2453C80.5012 65.3395 80.7512 65.388 81.0037 65.388C81.2561 65.388 81.5061 65.3396 81.7393 65.2454C81.9725 65.1513 82.1844 65.0133 82.3629 64.8393C82.5414 64.6653 82.683 64.4588 82.7796 64.2315C82.8762 64.0042 82.926 63.7606 82.926 63.5146C82.9259 63.2686 82.8762 63.025 82.7796 62.7977C82.683 62.5704 82.5414 62.3639 82.3628 62.1899L70.8296 50.9499C70.4691 50.5986 69.9802 50.4012 69.4704 50.4012C68.9606 50.4012 68.4716 50.5986 68.1111 50.9499L56.5778 62.1899C56.2173 62.5412 56.0148 63.0177 56.0148 63.5146C56.0148 64.0114 56.2173 64.4879 56.5778 64.8392V64.8392Z" fill="white"/>
</g>
<g id="GreenBox1">
<g id="b1a491a7-739b-4f1f-bff8-dbf70f6892c8" filter="url(#filter2_d_2_39)">
<path d="M15.322 267.1C14.4412 267.101 13.5969 267.442 12.9741 268.049C12.3513 268.656 12.001 269.479 12 270.337V380.762C12.001 381.621 12.3513 382.444 12.9741 383.051C13.5969 383.658 14.4412 383.999 15.322 384H401.677C402.558 383.999 403.402 383.658 404.025 383.051C404.648 382.444 404.998 381.621 404.999 380.762V270.337C404.998 269.479 404.648 268.656 404.025 268.049C403.402 267.442 402.558 267.101 401.677 267.1H15.322Z" fill="#34495E"/>
</g>
<path id="acd48b1a-d10a-4276-b388-f016adebff0c" d="M20.3251 375.888H396.675V275.212H20.3251V375.888Z" fill="#34495E"/>
<path id="bed21912-b6c9-41df-a59b-963435bac71a" d="M349.168 355.002C347.709 355.002 346.309 355.567 345.277 356.573C344.245 357.579 343.665 358.943 343.665 360.366C343.665 361.788 344.245 363.152 345.277 364.158C346.309 365.164 347.709 365.729 349.168 365.729H371.18C372.639 365.729 374.039 365.164 375.071 364.158C376.103 363.152 376.683 361.788 376.683 360.366C376.683 358.943 376.103 357.579 375.071 356.573C374.039 355.567 372.639 355.002 371.18 355.002H349.168Z" fill="#2ECC71"/>
<path id="a26455fb-834b-4368-afb2-80d86a75d46a" d="M376.683 344.6H122.584V346.012H376.683V344.6Z" fill="#E6E6E6"/>
<path id="f17c58cd-37a1-42e1-9e5f-26c2ec8825b4" d="M69.4704 356.787C87.172 356.787 101.522 342.802 101.522 325.55C101.522 308.298 87.172 294.313 69.4704 294.313C51.7687 294.313 37.4187 308.298 37.4187 325.55C37.4187 342.802 51.7687 356.787 69.4704 356.787Z" fill="#2ECC71"/>
<path id="GreenBox1Line" d="M122.986 336.72L122.184 335.546L148.588 318.39L166.694 326.861L192.739 310.64L244.546 332.177L285.802 312.425L325.859 328.259L376.198 308.551L377.158 309.608L326.153 329.896L285.859 313.976L244.588 333.733L192.874 312.234L166.796 328.473L148.706 320.01L122.986 336.72Z" stroke="url(#paint2_linear_2_39)" stroke-width="2"/>
<path id="Vector_3" d="M56.5779 325.938C56.7563 326.112 56.9682 326.25 57.2014 326.344C57.4346 326.438 57.6846 326.487 57.937 326.487C58.1894 326.487 58.4394 326.438 58.6726 326.344C58.9058 326.25 59.1177 326.112 59.2962 325.938L59.2963 325.938L67.5481 317.896V337.727C67.5504 338.221 67.7531 338.695 68.112 339.044C68.471 339.393 68.957 339.59 69.4642 339.592C69.9715 339.593 70.4588 339.399 70.8201 339.052C71.1813 338.705 71.3871 338.233 71.3926 337.739V317.896L79.6444 325.938C80.0039 326.29 80.4924 326.489 81.0022 326.49C81.512 326.491 82.0014 326.295 82.3628 325.945C82.7243 325.594 82.928 325.118 82.9293 324.622C82.9306 324.125 82.7294 323.648 82.3698 323.295L82.3629 323.289L70.8296 312.049C70.4691 311.697 69.9802 311.5 69.4704 311.5C68.9606 311.5 68.4716 311.697 68.1111 312.049L56.5779 323.289C56.3994 323.463 56.2578 323.669 56.1612 323.896C56.0646 324.124 56.0148 324.367 56.0148 324.613C56.0148 324.859 56.0646 325.103 56.1612 325.33C56.2578 325.557 56.3994 325.764 56.5779 325.938V325.938Z" fill="white"/>
</g>
<path id="Vector_4" d="M559.775 551.916L544.546 551.915L537.302 493.178L559.777 493.179L559.775 551.916Z" fill="#3498DB"/>
<path id="Vector_5" d="M563.658 566.678L514.556 566.676V566.055C514.556 560.986 516.57 556.126 520.154 552.541C523.738 548.957 528.599 546.944 533.668 546.943H533.669L563.659 546.945L563.658 566.678Z" fill="#2F2E41"/>
<path id="Vector_6" d="M503.879 551.916L488.651 551.915L481.406 493.178L503.882 493.179L503.879 551.916Z" fill="#3498DB"/>
<path id="Vector_7" d="M507.762 566.678L458.66 566.676V566.055C458.66 560.986 460.674 556.126 464.258 552.541C467.842 548.957 472.703 546.944 477.772 546.943H477.773L507.763 546.945L507.762 566.678Z" fill="#2F2E41"/>
<path id="Vector_8" d="M475.176 361.399C476.495 360.322 477.562 358.969 478.301 357.435C479.041 355.902 479.435 354.224 479.456 352.522C479.477 350.819 479.124 349.132 478.423 347.581C477.722 346.029 476.689 344.65 475.397 343.541L483.674 318.244L469.528 309.465L458.341 345.353C456.621 347.647 455.803 350.492 456.04 353.349C456.278 356.205 457.556 358.876 459.631 360.854C461.706 362.832 464.435 363.98 467.3 364.08C470.165 364.181 472.967 363.227 475.176 361.399V361.399Z" fill="#3498DB"/>
<path id="Vector_9" d="M490.266 344.7C490.266 344.7 476.052 421.641 476.23 436.576C476.444 454.599 484.463 531.839 484.463 531.839L504.88 526.735L508.739 437.209L524.886 380.071L531.097 453.356L537.331 530.446H561.017L566.322 337.043L488.99 334.491L490.266 344.7Z" fill="#2F2E41"/>
<path id="Vector_10" d="M561.087 189.659L520.254 190.935L494.732 349.166C494.732 349.166 548.965 374.049 571.934 356.184C594.903 338.319 561.087 189.659 561.087 189.659Z" fill="#CBCBCB"/>
<path id="Vector_11" d="M525.996 223.474L491.542 421.263L469.849 414.883L485.162 343.424L492.818 271.964L491.542 200.505L518.339 189.021L525.996 180.088C525.996 180.088 541.308 199.229 525.996 223.474Z" fill="#2F2E41"/>
<path id="Vector_12" d="M543.861 218.646L546.413 426.367L598.731 417.435L594.903 224.75L600.007 197.953L574.486 186.469L564.152 180.088C564.152 180.088 541.308 187.021 543.861 218.646Z" fill="#2F2E41"/>
<path id="Vector_13" d="M503.027 204.333L491.543 200.505L474.954 274.516L460.917 333.215L481.334 337.043L500.475 273.24L503.027 204.333Z" fill="#2F2E41"/>
<path id="Vector_14" d="M618.071 373.821C616.752 372.744 615.685 371.39 614.946 369.857C614.207 368.323 613.813 366.645 613.792 364.943C613.771 363.24 614.123 361.554 614.824 360.002C615.526 358.45 616.559 357.071 617.851 355.962L609.574 330.666L623.719 321.886L634.907 357.774C636.626 360.068 637.445 362.913 637.207 365.77C636.969 368.627 635.691 371.297 633.616 373.275C631.541 375.253 628.812 376.401 625.947 376.502C623.082 376.602 620.28 375.648 618.071 373.821V373.821Z" fill="#3498DB"/>
<path id="Vector_15" d="M588.979 201.849L600.463 198.021L617.052 272.032L632.331 345.636L609.351 349.017L591.531 270.756L588.979 201.849Z" fill="#2F2E41"/>
<path id="Vector_16" d="M557.077 169.652C570.822 162.138 575.873 144.905 568.359 131.161C560.846 117.417 543.613 112.365 529.869 119.879C516.124 127.392 511.073 144.625 518.586 158.369C526.1 172.114 543.333 177.165 557.077 169.652Z" fill="#3498DB"/>
<path id="Vector_17" d="M533.583 107.652C560.697 99.8333 568.393 122.306 568.393 122.306C581.462 130.976 573.28 141.847 573.28 141.847C576.577 142.58 569.984 161.878 567.785 161.389C566.612 161.129 563.595 164.729 561.037 168.144C560.159 168.143 559.284 168.227 558.423 168.396L563.387 150.031C563.387 150.031 546.654 147.467 541.524 139.407C536.616 131.695 520.458 129.26 515.86 134.411C515.588 132.93 515.031 131.516 514.22 130.247C513.592 129.284 512.771 128.461 511.809 127.83C515.874 110.553 533.583 107.652 533.583 107.652Z" fill="#2F2E41"/>
</g>
<defs>
<filter id="filter0_d_2_39" x="2" y="131.593" width="412.999" height="136.9" filterUnits="userSpaceOnUse" color-interpolation-filters="sRGB">
<feFlood flood-opacity="0" result="BackgroundImageFix"/>
<feColorMatrix in="SourceAlpha" type="matrix" values="0 0 0 0 0 0 0 0 0 0 0 0 0 0 0 0 0 0 127 0" result="hardAlpha"/>
<feOffset dy="5"/>
<feGaussianBlur stdDeviation="5"/>
<feComposite in2="hardAlpha" operator="out"/>
<feColorMatrix type="matrix" values="0 0 0 0 0 0 0 0 0 0 0 0 0 0 0 0 0 0 0.25 0"/>
<feBlend mode="normal" in2="BackgroundImageFix" result="effect1_dropShadow_2_39"/>
<feBlend mode="normal" in="SourceGraphic" in2="effect1_dropShadow_2_39" result="shape"/>
</filter>
<filter id="filter1_d_2_39" x="2" y="1" width="413" height="136.9" filterUnits="userSpaceOnUse" color-interpolation-filters="sRGB">
<feFlood flood-opacity="0" result="BackgroundImageFix"/>
<feColorMatrix in="SourceAlpha" type="matrix" values="0 0 0 0 0 0 0 0 0 0 0 0 0 0 0 0 0 0 127 0" result="hardAlpha"/>
<feOffset dy="5"/>
<feGaussianBlur stdDeviation="5"/>
<feComposite in2="hardAlpha" operator="out"/>
<feColorMatrix type="matrix" values="0 0 0 0 0 0 0 0 0 0 0 0 0 0 0 0 0 0 0.25 0"/>
<feBlend mode="normal" in2="BackgroundImageFix" result="effect1_dropShadow_2_39"/>
<feBlend mode="normal" in="SourceGraphic" in2="effect1_dropShadow_2_39" result="shape"/>
</filter>
<filter id="filter2_d_2_39" x="8" y="267.1" width="400.999" height="124.9" filterUnits="userSpaceOnUse" color-interpolation-filters="sRGB">
<feFlood flood-opacity="0" result="BackgroundImageFix"/>
<feColorMatrix in="SourceAlpha" type="matrix" values="0 0 0 0 0 0 0 0 0 0 0 0 0 0 0 0 0 0 127 0" result="hardAlpha"/>
<feOffset dy="4"/>
<feGaussianBlur stdDeviation="2"/>
<feComposite in2="hardAlpha" operator="out"/>
<feColorMatrix type="matrix" values="0 0 0 0 0 0 0 0 0 0 0 0 0 0 0 0 0 0 0.25 0"/>
<feBlend mode="normal" in2="BackgroundImageFix" result="effect1_dropShadow_2_39"/>
<feBlend mode="normal" in="SourceGraphic" in2="effect1_dropShadow_2_39" result="shape"/>
</filter>
<linearGradient id="paint0_linear_2_39" x1="377.456" y1="209.013" x2="122.022" y2="164.082" gradientUnits="userSpaceOnUse">
<stop offset="0.539651" stop-color="#E74C3C"/>
<stop offset="1" stop-color="#E67E22"/>
</linearGradient>
<linearGradient id="paint1_linear_2_39" x1="121.637" y1="76.0455" x2="376.888" y2="21.169" gradientUnits="userSpaceOnUse">
<stop stop-color="#27AE60"/>
<stop offset="1" stop-color="#2ECC71"/>
</linearGradient>
<linearGradient id="paint2_linear_2_39" x1="121.637" y1="322.986" x2="377.203" y2="286.772" gradientUnits="userSpaceOnUse">
<stop stop-color="#27AE60"/>
<stop offset="0.84375" stop-color="#2ECC71"/>
</linearGradient>
</defs>
</svg>
